<svg xmlns="http://www.w3.org/2000/svg" width="199.9490966796875" height="308.9142761230469" viewBox="-40.37934112548828 -55.7776985168457 199.9490966796875 308.9142761230469"><title>Neo4j Graph Visualization</title><desc>Created using Neo4j (http://www.neo4j.com/)</desc><g class="layer relationships"><g class="relationship" transform="translate(28.36553922059226 39.501211531311085) rotate(342.56711954730395)"><path class="outline" fill="#A5ABB6" stroke="none" d="M 5.987513214418485,24.277555179777966 L 6.953439040707552,24.018736134675446 A 46.32502751178901 46.32502751178901 0 0 0 21.84615644235336,47.45149201811695 L 21.201713801322107,48.216144672869845 A 47.32502751178901 47.32502751178901 0 0 1 5.987513214418485,24.277555179777966 Z M 77.48925065206313,51.70981027035336 L 76.9443112724137,50.87133482497211 A 46.32502751178901 46.32502751178901 0 0 0 94.62041612095898,29.460066826988612 L 91.84089678281241,28.331230147539696 L 97.71762159603088,23.162661151221435 L 98.3264419051544,30.965182399587167 L 95.54692256700783,29.83634572013825 A 47.32502751178901 47.32502751178901 0 0 1 77.48925065206313,51.70981027035336"/><text text-anchor="middle" pointer-events="none" font-size="8px" fill="#000000" x="48.7992169243127" y="61.764028253386115" font-family="sans-serif">CONNECTION</text></g><g class="relationship" transform="translate(26.29913020662698 146.13398273241168) rotate(271.1101811999123)"><path class="outline" fill="#A5ABB6" stroke="none" d="M 5.987513214418485,24.277555179777966 L 6.953439040707552,24.018736134675446 A 46.07227562418923 46.07227562418923 0 0 0 21.63359418043797,47.21255756315209 L 20.98630152216249,47.97479913545227 A 47.07227562418923 47.07227562418923 0 0 1 5.987513214418485,24.277555179777966 Z M 77.23335645239916,51.4811380202122 L 76.68574076633845,50.64440803964484 A 46.07227562418923 46.07227562418923 0 0 0 94.13276922367984,29.453336679486373 L 91.35385747880913,28.323005084679068 L 97.233361569042,23.157597873922604 L 97.83798488350745,30.960445472562782 L 95.05907313863673,29.830113877755476 A 47.07227562418923 47.07227562418923 0 0 1 77.23335645239916,51.4811380202122"/><text text-anchor="middle" pointer-events="none" font-size="8px" fill="#000000" x="48.558233824922254" y="61.576401206887525" font-family="sans-serif">CONNECTION</text></g><g class="relationship" transform="translate(26.29913020662698 146.13398273241168) rotate(386.6481364448555)"><path class="outline" fill="#A5ABB6" stroke="none" d="M 5.987513214418485,24.277555179777966 L 6.953439040707552,24.018736134675446 A 46.389483508011665 46.389483508011665 0 0 0 21.900435818038403,47.51235117170543 L 21.256716570633735,48.27761291158322 A 47.389483508011665 47.389483508011665 0 0 1 5.987513214418485,24.277555179777966 Z M 77.55447260413685,51.76805696471784 L 77.01021190607565,50.92914082317213 A 46.389483508011665 46.389483508011665 0 0 0 94.74477619897864,29.461772807726234 L 91.96510285153242,28.33331541752615 L 97.84112233401986,23.163944562051753 L 98.45100732890693,30.966382661326342 L 95.6713339814607,29.83792527112626 A 47.389483508011665 47.389483508011665 0 0 1 77.55447260413685,51.76805696471784"/><text text-anchor="middle" pointer-events="none" font-size="8px" fill="#000000" x="48.86067666227345" y="61.811876085702764" font-family="sans-serif">CONNECTION</text></g><g class="relationship" transform="translate(28.36553922059226 39.501211531311085) rotate(342.56711954730395)"><path class="outline" fill="#A5ABB6" stroke="none" d="M 17.324116139070416,18.03122292025696 L 18.031222920256962,17.324116139070412 A 47.61481220861982 47.61481220861982 0 0 0 22.306424477548624,21.114527494713435 L 21.68910491506537,21.901239994789222 A 48.61481220861982 48.61481220861982 0 0 1 17.324116139070416,18.03122292025696 Z M 78.22233626442663,24.39802217765496 L 77.67677503439008,23.559951211518438 A 47.61481220861982 47.61481220861982 0 0 0 82.26948538628788,20.161189933636926 L 80.34343520670588,17.861118042210027 L 87.957328162881,16.050418163183398 L 84.83755229239723,23.227952455539462 L 82.91150211281523,20.927880564112563 A 48.61481220861982 48.61481220861982 0 0 1 78.22233626442663,24.39802217765496"/><text text-anchor="middle" pointer-events="none" font-size="8px" fill="#000000" x="49.5770650287503" y="34.72331547823527" font-family="sans-serif">CONNECTION</text></g><g class="relationship" transform="translate(28.36553922059226 39.501211531311085) rotate(342.56711954730395)"><path class="outline" fill="#A5ABB6" stroke="none" d="M 24.018736134675446,6.953439040707552 L 24.277555179777966,5.987513214418485 A 105.9521115505846 105.9521115505846 0 0 0 26.052242273630593,6.446622178241597 L 25.810173126834773,7.416881178802555 A 106.9521115505846 106.9521115505846 0 0 1 24.018736134675446,6.953439040707552 Z M 74.27587315018835,8.187887850394375 L 74.0647890181877,7.210419953623571 A 105.9521115505846 105.9521115505846 0 0 0 75.85318167170155,6.807993514870977 L 75.16929151226077,3.8869843998868987 L 82.78285129990454,5.699084662006503 L 76.7650352176226,10.702672334849748 L 76.08114505818182,7.78166321986567 A 106.9521115505846 106.9521115505846 0 0 1 74.27587315018835,8.187887850394375"/><text text-anchor="middle" pointer-events="none" font-size="8px" fill="#000000" x="50.006722129954866" y="13.084276301113775" font-family="sans-serif">CONNEC…</text></g><g class="relationship" transform="translate(28.36553922059226 39.501211531311085) rotate(342.56711954730395)"><path class="outline" fill="#A5ABB6" stroke="none" d="M 24.018736134675446,-6.953439040707552 L 24.277555179777966,-5.987513214418485 A 105.9521115505846 105.9521115505846 0 0 1 26.052242273630554,-6.446622178241597 L 25.810173126834734,-7.416881178802555 A 106.9521115505846 106.9521115505846 0 0 0 24.018736134675446,-6.953439040707552 Z M 74.27587315018829,-8.18788785039439 L 74.06478901818764,-7.210419953623585 A 105.9521115505846 105.9521115505846 0 0 1 75.85318167170155,-6.807993514870977 L 75.16929151226077,-3.8869843998868987 L 82.78285129990454,-5.699084662006503 L 76.7650352176226,-10.702672334849748 L 76.08114505818182,-7.78166321986567 A 106.9521115505846 106.9521115505846 0 0 0 74.27587315018829,-8.18788785039439"/><text text-anchor="middle" pointer-events="none" font-size="8px" fill="#000000" x="50.00672212995482" y="-7.084276301113775" font-family="sans-serif">CONNEC…</text></g><g class="relationship" transform="translate(28.36553922059226 39.501211531311085) rotate(342.56711954730395)"><path class="outline" fill="#A5ABB6" stroke="none" d="M 17.324116139070416,-18.03122292025696 L 18.031222920256962,-17.324116139070412 A 47.61481220861982 47.61481220861982 0 0 1 22.30642447754861,-21.11452749471343 L 21.689104915065357,-21.901239994789208 A 48.61481220861982 48.61481220861982 0 0 0 17.324116139070416,-18.03122292025696 Z M 78.22233626442662,-24.398022177654973 L 77.67677503439006,-23.559951211518452 A 47.61481220861982 47.61481220861982 0 0 1 82.26948538628788,-20.161189933636926 L 80.34343520670588,-17.861118042210027 L 87.957328162881,-16.050418163183398 L 84.83755229239723,-23.227952455539462 L 82.91150211281523,-20.927880564112563 A 48.61481220861982 48.61481220861982 0 0 0 78.22233626442662,-24.398022177654973"/><text text-anchor="middle" pointer-events="none" font-size="8px" fill="#000000" x="49.57706502875027" y="-28.72331547823527" font-family="sans-serif">CONNECTION</text></g><g class="relationship" transform="translate(28.36553922059226 39.501211531311085) rotate(342.56711954730395)"><path class="outline" fill="#A5ABB6" stroke="none" d="M 5.987513214418485,-24.277555179777966 L 6.953439040707552,-24.018736134675446 A 46.32502751178901 46.32502751178901 0 0 1 21.846156442353358,-47.45149201811694 L 21.201713801322104,-48.216144672869845 A 47.32502751178901 47.32502751178901 0 0 0 5.987513214418485,-24.277555179777966 Z M 77.48925065206312,-51.70981027035337 L 76.94431127241369,-50.871334824972124 A 46.32502751178901 46.32502751178901 0 0 1 94.62041612095898,-29.460066826988612 L 91.84089678281241,-28.331230147539696 L 97.71762159603088,-23.162661151221435 L 98.3264419051544,-30.965182399587167 L 95.54692256700783,-29.83634572013825 A 47.32502751178901 47.32502751178901 0 0 0 77.48925065206312,-51.70981027035337"/><text text-anchor="middle" pointer-events="none" font-size="8px" fill="#000000" x="48.79921692431269" y="-55.764028253386115" font-family="sans-serif">CONNECTION</text></g><g class="relationship" transform="translate(26.29913020662698 146.13398273241168) rotate(271.1101811999123)"><path class="outline" fill="#A5ABB6" stroke="none" d="M 13.473521019338785,21.06452542407343 L 14.30499063164133,20.50895519105383 A 44.68094655618121 44.68094655618121 0 0 0 22.191378404535147,29.449115628505982 L 21.536413284208336,30.20477473892237 A 45.68094655618121 45.68094655618121 0 0 1 13.473521019338785,21.06452542407343 Z M 77.58484695969925,33.15585781911146 L 77.012857782865,32.3355966524185 A 44.68094655618121 44.68094655618121 0 0 0 85.79447863257593,24.273046435287696 L 83.48888924802391,22.35360443568442 L 90.65744152907558,19.21324487126686 L 88.86859781197863,26.832302434758734 L 86.56300842742661,24.91286043515546 A 45.68094655618121 45.68094655618121 0 0 1 77.58484695969925,33.15585781911146"/><text text-anchor="middle" pointer-events="none" font-size="8px" fill="#000000" x="49.080246472926326" y="43.804000824550315" font-family="sans-serif">CONNECTION</text></g><g class="relationship" transform="translate(26.29913020662698 146.13398273241168) rotate(386.6481364448555)"><path class="outline" fill="#A5ABB6" stroke="none" d="M 10.396609043987748,22.74116356711926 L 11.29757791189017,22.307279828001697 A 44.9123857205233 44.9123857205233 0 0 0 22.307174391418894,36.72512074869889 L 21.651340496929784,37.480025976419064 A 45.9123857205233 45.9123857205233 0 0 1 10.396609043987748,22.74116356711926 Z M 77.72555594296111,40.68678203592141 L 77.16005893586377,39.86203168886846 A 44.9123857205233 44.9123857205233 0 0 0 89.74154897168825,26.79331101945972 L 87.20465569827928,25.19200763804433 L 93.90073907389231,21.140777278408034 L 93.12407333623352,28.928382194680232 L 90.58718006282456,27.327078813264844 A 45.9123857205233 45.9123857205233 0 0 1 77.72555594296111,40.68678203592141"/><text text-anchor="middle" pointer-events="none" font-size="8px" fill="#000000" x="49.16944513358468" y="51.15883423589126" font-family="sans-serif">CONNECTION</text></g><g class="relationship" transform="translate(26.29913020662698 146.13398273241168) rotate(386.6481364448555)"><path class="outline" fill="#A5ABB6" stroke="none" d="M 14.44320574945421,20.411854586953456 L 15.247803529220876,19.818034401379958 A 45.38222279295257 45.38222279295257 0 0 0 22.459062419909028,27.52272531742922 L 21.813365162128427,28.28631882924988 A 46.38222279295257 46.38222279295257 0 0 1 14.44320574945421,20.411854586953456 Z M 77.98632914771724,31.12628056340523 L 77.42093817808922,30.3014575208906 A 45.38222279295257 45.38222279295257 0 0 0 85.37249908681748,23.363360086062748 L 83.1506868139248,21.34753513730766 L 90.4463926793948,18.515102274105672 L 88.3349154506744,26.051126684402867 L 86.11310317778172,24.035301735647778 A 46.38222279295257 46.38222279295257 0 0 1 77.98632914771724,31.12628056340523"/><text text-anchor="middle" pointer-events="none" font-size="8px" fill="#000000" x="49.44551006775771" y="41.692850651470614" font-family="sans-serif">CONNECTION</text></g><g class="relationship" transform="translate(26.29913020662698 146.13398273241168) rotate(386.6481364448555)"><path class="outline" fill="#A5ABB6" stroke="none" d="M 17.9862104268602,17.370844380187897 L 18.666383164631117,16.637792508358068 A 48.65801615798117 48.65801615798117 0 0 0 22.30130878115122,19.694336336959132 L 21.69583957434051,20.490205069605423 A 49.65801615798117 49.65801615798117 0 0 1 17.9862104268602,17.370844380187897 Z M 78.37798059952657,22.891739347374866 L 77.84199983691323,22.04750915239933 A 48.65801615798117 48.65801615798117 0 0 0 81.72243676602899,19.309379562159364 L 79.87524693571726,16.945507795165025 L 87.54600252740106,15.393248585931058 L 84.18535653977796,22.461208584818483 L 82.33816670946622,20.097336817824143 A 49.65801615798117 49.65801615798117 0 0 1 78.37798059952657,22.891739347374866"/><text text-anchor="middle" pointer-events="none" font-size="8px" fill="#000000" x="49.68135727872973" y="33.082896739014814" font-family="sans-serif">CONNECTION</text></g><g class="relationship" transform="translate(26.29913020662698 146.13398273241168) rotate(386.6481364448555)"><path class="outline" fill="#A5ABB6" stroke="none" d="M 20.90208894244944,13.724164012497553 L 21.434121018964774,12.87743981326927 A 57.00430396787889 57.00430396787889 0 0 0 21.83766029470076,13.12865966044059 L 21.312707320071542,13.979790892641553 A 58.00430396787889 58.00430396787889 0 0 1 20.90208894244944,13.724164012497553 Z M 78.9001554180595,15.874858408193191 L 78.43229502956521,14.991056022544697 A 57.00430396787889 57.00430396787889 0 0 0 78.85147747795419,14.766910012906092 L 77.42583574409957,12.127299123647598 L 85.2481765085331,11.880347782121747 L 80.75233312309368,18.286391198584084 L 79.32669138923906,15.646780309325589 A 58.00430396787889 58.00430396787889 0 0 1 78.9001554180595,15.874858408193191"/><text text-anchor="middle" pointer-events="none" font-size="8px" fill="#000000" x="49.870931575644946" y="25.0837093276917" font-family="sans-serif">CONNECTION</text></g><g class="relationship" transform="translate(26.29913020662698 146.13398273241168) rotate(386.6481364448555)"><path class="outline" fill="#A5ABB6" stroke="none" d="M 23.08917320392191,9.598962483481976 L 23.454514228288303,8.668088734837774 A 77.4830175453527 77.4830175453527 0 0 0 24.043175847745633,8.896358006957541 L 23.68543212196293,9.830177811129161 A 78.4830175453527 78.4830175453527 0 0 1 23.08917320392191,9.598962483481976 Z M 76.51722375167897,11.017854488887636 L 76.20180539371297,10.068901771699885 A 77.4830175453527 77.4830175453527 0 0 0 76.80013029290947,9.867316360973634 L 75.83070917883319,7.028263225933168 L 83.58615779368327,8.07850928396905 L 78.09269177834452,13.65272054102759 L 77.12327066426823,10.813667405987124 A 78.4830175453527 78.4830175453527 0 0 1 76.51722375167897,11.017854488887636"/><text text-anchor="middle" pointer-events="none" font-size="8px" fill="#000000" x="50.00959722958273" y="17.50450177510534" font-family="sans-serif">CONNECT…</text></g><g class="relationship" transform="translate(26.29913020662698 146.13398273241168) rotate(271.1101811999123)"><path class="outline" fill="#A5ABB6" stroke="none" d="M 19.529452792776517,15.615712395363635 L 20.13821422178524,14.822359055072399 A 51.44482588397726 51.44482588397726 0 0 0 21.84359341305714,16.076058322802353 L 21.267981657741903,16.893781446569143 A 52.44482588397726 52.44482588397726 0 0 1 19.529452792776517,15.615712395363635 Z M 78.30406579191822,19.059877758372906 L 77.79213300546387,18.200852251095576 A 51.44482588397726 51.44482588397726 0 0 0 79.5876878917934,17.080110224531072 L 77.94718192449444,14.568389664584855 L 85.72178685955106,13.670883060824568 L 81.77502918152531,20.429070971126034 L 80.13452321422636,17.917350411179815 A 52.44482588397726 52.44482588397726 0 0 1 78.30406579191822,19.059877758372906"/><text text-anchor="middle" pointer-events="none" font-size="8px" fill="#000000" x="49.48451875035216" y="28.915840900114794" font-family="sans-serif">CONNECTION</text></g><g class="relationship" transform="translate(26.29913020662698 146.13398273241168) rotate(386.6481364448555)"><path class="outline" fill="#A5ABB6" stroke="none" d="M 24.471206027250748,5.139073415689509 L 24.657117634413662,4.15650694245622 A 145.79574674506955 145.79574674506955 0 0 0 25.985156919770734,4.401420367138996 L 25.808354215405096,5.385666679669043 A 146.79574674506955 146.79574674506955 0 0 1 24.471206027250748,5.139073415689509 Z M 74.41462466087211,5.9399400938817735 L 74.26031238729578,4.951917967498105 A 145.79574674506955 145.79574674506955 0 0 0 75.5935912635012,4.737352436002705 L 75.10321992072402,1.7777011142786585 L 82.58117290465351,4.086427856476598 L 76.24741972053745,8.683554198301433 L 75.75704837776027,5.7239028765773865 A 146.79574674506955 146.79574674506955 0 0 1 74.41462466087211,5.9399400938817735"/><text text-anchor="middle" pointer-events="none" font-size="8px" fill="#000000" x="50.09408879035961" y="10.188730068777375" font-family="sans-serif">CONNEC…</text></g><g class="relationship" transform="translate(26.29913020662698 146.13398273241168) rotate(386.6481364448555)"><path class="outline" fill="#A5ABB6" stroke="none" d="M 25 0.5 L 25.78848258451027 0.5 L 25.78848258451027 -0.5 L 25 -0.5 Z M 74.45645133451026 0.5 L 75.24493391902054 0.5 L 75.24493391902054 3.5 L 82.24493391902054 0 L 75.24493391902054 -3.5 L 75.24493391902054 -0.5 L 74.45645133451026 -0.5 Z"/><text text-anchor="middle" pointer-events="none" font-size="8px" fill="#000000" x="50.12246695951027" y="3" font-family="sans-serif">CONNEC…</text></g><g class="relationship" transform="translate(26.29913020662698 146.13398273241168) rotate(271.1101811999123)"><path class="outline" fill="#A5ABB6" stroke="none" d="M 23.51253350472606,8.509451697326591 L 23.833972970029226,7.562521567831486 A 85.93178484147745 85.93178484147745 0 0 0 25.946364110632377,8.249265106893517 L 25.649506831588933,9.204186965413328 A 86.93178484147745 86.93178484147745 0 0 1 23.51253350472606,8.509451697326591 Z M 73.94538642421043,10.16347512378519 L 73.68668304519665,9.197518312283336 A 85.93178484147745 85.93178484147745 0 0 0 75.82467849562671,8.59519906696383 L 74.9739279171803,5.718356448176161 L 82.67910303587234,7.089588153720135 L 76.95901260022194,12.430989225347387 L 76.10826202177553,9.55414660655972 A 86.93178484147745 86.93178484147745 0 0 1 73.94538642421043,10.16347512378519"/><text text-anchor="middle" pointer-events="none" font-size="8px" fill="#000000" x="49.73940703949515" y="15.605865418450264" font-family="sans-serif">CONNEC…</text></g><g class="relationship" transform="translate(26.29913020662698 146.13398273241168) rotate(271.1101811999123)"><path class="outline" fill="#A5ABB6" stroke="none" d="M 25 0.5 L 25.492411387884786 0.5 L 25.492411387884786 -0.5 L 25 -0.5 Z M 74.16038013788479 0.5 L 74.65279152576957 0.5 L 74.65279152576957 3.5 L 81.65279152576957 0 L 74.65279152576957 -3.5 L 74.65279152576957 -0.5 L 74.16038013788479 -0.5 Z"/><text text-anchor="middle" pointer-events="none" font-size="8px" fill="#000000" x="49.826395762884786" y="3" font-family="sans-serif">CONNEC…</text></g><g class="relationship" transform="translate(26.29913020662698 146.13398273241168) rotate(386.6481364448555)"><path class="outline" fill="#A5ABB6" stroke="none" d="M 24.471206027250748,-5.139073415689509 L 24.657117634413662,-4.15650694245622 A 145.79574674506955 145.79574674506955 0 0 1 25.985156919770716,-4.401420367138996 L 25.80835421540508,-5.385666679669043 A 146.79574674506955 146.79574674506955 0 0 0 24.471206027250748,-5.139073415689509 Z M 74.4146246608721,-5.9399400938817735 L 74.26031238729578,-4.951917967498105 A 145.79574674506955 145.79574674506955 0 0 1 75.5935912635012,-4.737352436002705 L 75.10321992072402,-1.7777011142786585 L 82.58117290465351,-4.086427856476598 L 76.24741972053745,-8.683554198301433 L 75.75704837776027,-5.7239028765773865 A 146.79574674506955 146.79574674506955 0 0 0 74.4146246608721,-5.9399400938817735"/><text text-anchor="middle" pointer-events="none" font-size="8px" fill="#000000" x="50.0940887903596" y="-4.1887300687773745" font-family="sans-serif">CONNEC…</text></g><g class="relationship" transform="translate(26.29913020662698 146.13398273241168) rotate(386.6481364448555)"><path class="outline" fill="#A5ABB6" stroke="none" d="M 23.08917320392191,-9.598962483481976 L 23.454514228288303,-8.668088734837774 A 77.4830175453527 77.4830175453527 0 0 1 24.043175847745612,-8.896358006957541 L 23.685432121962908,-9.830177811129147 A 78.4830175453527 78.4830175453527 0 0 0 23.08917320392191,-9.598962483481976 Z M 76.51722375167897,-11.017854488887636 L 76.20180539371296,-10.068901771699885 A 77.4830175453527 77.4830175453527 0 0 1 76.80013029290947,-9.867316360973634 L 75.83070917883319,-7.028263225933168 L 83.58615779368327,-8.07850928396905 L 78.09269177834452,-13.65272054102759 L 77.12327066426823,-10.813667405987124 A 78.4830175453527 78.4830175453527 0 0 0 76.51722375167897,-11.017854488887636"/><text text-anchor="middle" pointer-events="none" font-size="8px" fill="#000000" x="50.00959722958271" y="-11.50450177510534" font-family="sans-serif">CONNECT…</text></g><g class="relationship" transform="translate(26.29913020662698 146.13398273241168) rotate(386.6481364448555)"><path class="outline" fill="#A5ABB6" stroke="none" d="M 20.90208894244944,-13.724164012497553 L 21.434121018964774,-12.87743981326927 A 57.00430396787889 57.00430396787889 0 0 1 21.837660294700754,-13.128659660440583 L 21.312707320071535,-13.979790892641546 A 58.00430396787889 58.00430396787889 0 0 0 20.90208894244944,-13.724164012497553 Z M 78.9001554180595,-15.874858408193184 L 78.43229502956521,-14.99105602254469 A 57.00430396787889 57.00430396787889 0 0 1 78.85147747795419,-14.766910012906092 L 77.42583574409957,-12.127299123647598 L 85.2481765085331,-11.880347782121747 L 80.75233312309368,-18.286391198584084 L 79.32669138923906,-15.646780309325589 A 58.00430396787889 58.00430396787889 0 0 0 78.9001554180595,-15.874858408193184"/><text text-anchor="middle" pointer-events="none" font-size="8px" fill="#000000" x="49.870931575644946" y="-19.0837093276917" font-family="sans-serif">CONNECTION</text></g><g class="relationship" transform="translate(26.29913020662698 146.13398273241168) rotate(271.1101811999123)"><path class="outline" fill="#A5ABB6" stroke="none" d="M 23.51253350472606,-8.509451697326591 L 23.833972970029226,-7.562521567831486 A 85.93178484147745 85.93178484147745 0 0 1 25.94636411063235,-8.249265106893517 L 25.6495068315889,-9.204186965413314 A 86.93178484147745 86.93178484147745 0 0 0 23.51253350472606,-8.509451697326591 Z M 73.94538642421043,-10.16347512378519 L 73.68668304519665,-9.197518312283336 A 85.93178484147745 85.93178484147745 0 0 1 75.82467849562671,-8.59519906696383 L 74.9739279171803,-5.718356448176161 L 82.67910303587234,-7.089588153720135 L 76.95901260022194,-12.430989225347387 L 76.10826202177553,-9.55414660655972 A 86.93178484147745 86.93178484147745 0 0 0 73.94538642421043,-10.16347512378519"/><text text-anchor="middle" pointer-events="none" font-size="8px" fill="#000000" x="49.73940703949513" y="-9.605865418450264" font-family="sans-serif">CONNEC…</text></g><g class="relationship" transform="translate(26.29913020662698 146.13398273241168) rotate(271.1101811999123)"><path class="outline" fill="#A5ABB6" stroke="none" d="M 19.529452792776517,-15.615712395363635 L 20.13821422178524,-14.822359055072399 A 51.44482588397726 51.44482588397726 0 0 1 21.843593413057132,-16.076058322802346 L 21.267981657741895,-16.893781446569136 A 52.44482588397726 52.44482588397726 0 0 0 19.529452792776517,-15.615712395363635 Z M 78.3040657919182,-19.059877758372913 L 77.79213300546385,-18.200852251095583 A 51.44482588397726 51.44482588397726 0 0 1 79.5876878917934,-17.080110224531072 L 77.94718192449444,-14.568389664584855 L 85.72178685955106,-13.670883060824568 L 81.77502918152531,-20.429070971126034 L 80.13452321422636,-17.917350411179815 A 52.44482588397726 52.44482588397726 0 0 0 78.3040657919182,-19.059877758372913"/><text text-anchor="middle" pointer-events="none" font-size="8px" fill="#000000" x="49.484518750352144" y="-22.915840900114794" font-family="sans-serif">CONNECTION</text></g><g class="relationship" transform="translate(26.29913020662698 146.13398273241168) rotate(386.6481364448555)"><path class="outline" fill="#A5ABB6" stroke="none" d="M 17.9862104268602,-17.370844380187897 L 18.666383164631117,-16.637792508358068 A 48.65801615798117 48.65801615798117 0 0 1 22.30130878115121,-19.69433633695912 L 21.6958395743405,-20.49020506960541 A 49.65801615798117 49.65801615798117 0 0 0 17.9862104268602,-17.370844380187897 Z M 78.37798059952655,-22.89173934737488 L 77.84199983691322,-22.047509152399343 A 48.65801615798117 48.65801615798117 0 0 1 81.72243676602899,-19.309379562159364 L 79.87524693571726,-16.945507795165025 L 87.54600252740106,-15.393248585931058 L 84.18535653977796,-22.461208584818483 L 82.33816670946622,-20.097336817824143 A 49.65801615798117 49.65801615798117 0 0 0 78.37798059952655,-22.89173934737488"/><text text-anchor="middle" pointer-events="none" font-size="8px" fill="#000000" x="49.68135727872971" y="-27.082896739014814" font-family="sans-serif">CONNECTION</text></g><g class="relationship" transform="translate(26.29913020662698 146.13398273241168) rotate(271.1101811999123)"><path class="outline" fill="#A5ABB6" stroke="none" d="M 13.473521019338785,-21.06452542407343 L 14.30499063164133,-20.50895519105383 A 44.68094655618121 44.68094655618121 0 0 1 22.19137840453514,-29.449115628505975 L 21.536413284208333,-30.204774738922364 A 45.68094655618121 45.68094655618121 0 0 0 13.473521019338785,-21.06452542407343 Z M 77.58484695969926,-33.15585781911146 L 77.01285778286501,-32.3355966524185 A 44.68094655618121 44.68094655618121 0 0 1 85.79447863257593,-24.273046435287696 L 83.48888924802391,-22.35360443568442 L 90.65744152907558,-19.21324487126686 L 88.86859781197863,-26.832302434758734 L 86.56300842742661,-24.91286043515546 A 45.68094655618121 45.68094655618121 0 0 0 77.58484695969926,-33.15585781911146"/><text text-anchor="middle" pointer-events="none" font-size="8px" fill="#000000" x="49.080246472926326" y="-37.804000824550315" font-family="sans-serif">CONNECTION</text></g><g class="relationship" transform="translate(26.29913020662698 146.13398273241168) rotate(386.6481364448555)"><path class="outline" fill="#A5ABB6" stroke="none" d="M 14.44320574945421,-20.411854586953456 L 15.247803529220876,-19.818034401379958 A 45.38222279295257 45.38222279295257 0 0 1 22.45906241990902,-27.522725317429213 L 21.81336516212842,-28.286318829249872 A 46.38222279295257 46.38222279295257 0 0 0 14.44320574945421,-20.411854586953456 Z M 77.98632914771723,-31.12628056340524 L 77.4209381780892,-30.301457520890615 A 45.38222279295257 45.38222279295257 0 0 1 85.37249908681748,-23.363360086062748 L 83.1506868139248,-21.34753513730766 L 90.4463926793948,-18.515102274105672 L 88.3349154506744,-26.051126684402867 L 86.11310317778172,-24.035301735647778 A 46.38222279295257 46.38222279295257 0 0 0 77.98632914771723,-31.12628056340524"/><text text-anchor="middle" pointer-events="none" font-size="8px" fill="#000000" x="49.4455100677577" y="-35.692850651470614" font-family="sans-serif">CONNECTION</text></g><g class="relationship" transform="translate(26.29913020662698 146.13398273241168) rotate(271.1101811999123)"><path class="outline" fill="#A5ABB6" stroke="none" d="M 5.987513214418485,-24.277555179777966 L 6.953439040707552,-24.018736134675446 A 46.07227562418923 46.07227562418923 0 0 1 21.63359418043796,-47.21255756315208 L 20.986301522162478,-47.974799135452265 A 47.07227562418923 47.07227562418923 0 0 0 5.987513214418485,-24.277555179777966 Z M 77.23335645239915,-51.48113802021221 L 76.68574076633845,-50.64440803964484 A 46.07227562418923 46.07227562418923 0 0 1 94.13276922367984,-29.453336679486373 L 91.35385747880913,-28.323005084679068 L 97.233361569042,-23.157597873922604 L 97.83798488350745,-30.960445472562782 L 95.05907313863673,-29.830113877755476 A 47.07227562418923 47.07227562418923 0 0 0 77.23335645239915,-51.48113802021221"/><text text-anchor="middle" pointer-events="none" font-size="8px" fill="#000000" x="48.55823382492225" y="-55.576401206887525" font-family="sans-serif">CONNECTION</text></g><g class="relationship" transform="translate(26.29913020662698 146.13398273241168) rotate(386.6481364448555)"><path class="outline" fill="#A5ABB6" stroke="none" d="M 10.396609043987748,-22.74116356711926 L 11.29757791189017,-22.307279828001697 A 44.9123857205233 44.9123857205233 0 0 1 22.307174391418897,-36.7251207486989 L 21.651340496929787,-37.48002597641907 A 45.9123857205233 45.9123857205233 0 0 0 10.396609043987748,-22.74116356711926 Z M 77.72555594296111,-40.68678203592142 L 77.16005893586377,-39.86203168886847 A 44.9123857205233 44.9123857205233 0 0 1 89.74154897168825,-26.79331101945972 L 87.20465569827928,-25.19200763804433 L 93.90073907389231,-21.140777278408034 L 93.12407333623352,-28.928382194680232 L 90.58718006282456,-27.327078813264844 A 45.9123857205233 45.9123857205233 0 0 0 77.72555594296111,-40.68678203592142"/><text text-anchor="middle" pointer-events="none" font-size="8px" fill="#000000" x="49.16944513358468" y="-45.15883423589126" font-family="sans-serif">CONNECTION</text></g><g class="relationship" transform="translate(26.29913020662698 146.13398273241168) rotate(386.6481364448555)"><path class="outline" fill="#A5ABB6" stroke="none" d="M 5.987513214418485,-24.277555179777966 L 6.953439040707552,-24.018736134675446 A 46.389483508011665 46.389483508011665 0 0 1 21.900435818038396,-47.51235117170543 L 21.25671657063373,-48.277612911583205 A 47.389483508011665 47.389483508011665 0 0 0 5.987513214418485,-24.277555179777966 Z M 77.55447260413683,-51.76805696471784 L 77.01021190607564,-50.92914082317213 A 46.389483508011665 46.389483508011665 0 0 1 94.74477619897864,-29.461772807726234 L 91.96510285153242,-28.33331541752615 L 97.84112233401986,-23.163944562051753 L 98.45100732890693,-30.966382661326342 L 95.6713339814607,-29.83792527112626 A 47.389483508011665 47.389483508011665 0 0 0 77.55447260413683,-51.76805696471784"/><text text-anchor="middle" pointer-events="none" font-size="8px" fill="#000000" x="48.86067666227344" y="-55.811876085702764" font-family="sans-serif">CONNECTION</text></g></g><g class="layer nodes"><g class="node" transform="translate(130.56974630958354,7.407930663536683)"><circle class="outline" cx="0" cy="0" r="25" fill="#ECB5C9" stroke="#da7298" stroke-width="2px"/><text text-anchor="middle" pointer-events="none" font-family="sans-serif" dy="1.5625" font-size="25" fill="#2A2C34"/><text text-anchor="middle" pointer-events="none" x="0" y="5" font-size="10px" fill="#2A2C34" font-family="sans-serif"> LAX</text></g><g class="node" transform="translate(122.15226500486422,194.2344234855487)"><circle class="outline" cx="0" cy="0" r="25" fill="#ECB5C9" stroke="#da7298" stroke-width="2px"/><text text-anchor="middle" pointer-events="none" font-family="sans-serif" dy="1.5625" font-size="25" fill="#2A2C34"/><text text-anchor="middle" pointer-events="none" x="0" y="5" font-size="10px" fill="#2A2C34" font-family="sans-serif"> DAY</text></g><g class="node" transform="translate(28.36553922059226,39.501211531311085)"><circle class="outline" cx="0" cy="0" r="25" fill="#ECB5C9" stroke="#da7298" stroke-width="2px"/><text text-anchor="middle" pointer-events="none" font-family="sans-serif" dy="1.5625" font-size="25" fill="#2A2C34"/><text text-anchor="middle" pointer-events="none" x="0" y="5" font-size="10px" fill="#2A2C34" font-family="sans-serif"> ORD</text></g><g class="node" transform="translate(26.29913020662698,146.13398273241168)"><circle class="outline" cx="0" cy="0" r="25" fill="#ECB5C9" stroke="#da7298" stroke-width="2px"/><text text-anchor="middle" pointer-events="none" font-family="sans-serif" dy="1.5625" font-size="25" fill="#2A2C34"/><text text-anchor="middle" pointer-events="none" x="0" y="5" font-size="10px" fill="#2A2C34" font-family="sans-serif"> MSP</text></g></g></svg>