<svg xmlns="http://www.w3.org/2000/svg" width="163.71188354492188" height="243.25082397460938" viewBox="-1.3419570922851562 -20.634437561035156 163.71188354492188 243.25082397460938"><title>Neo4j Graph Visualization</title><desc>Created using Neo4j (http://www.neo4j.com/)</desc><g class="layer relationships"><g class="relationship" transform="translate(133.3699311781968 8.365561481795057) rotate(521.9811615749777)"><path class="outline" fill="#A5ABB6" stroke="none" d="M 21.40063509461097,12.933012701892217 L 21.90063509461097,12.06698729810778 A 59.94119651240684 59.94119651240684 0 0 0 40.50495412003957,19.01006062218608 L 40.31533029048485,19.991917436220085 A 60.94119651240684 60.94119651240684 0 0 1 21.40063509461097,12.933012701892217 Z M 59.71897274303158,20.590173793586906 L 59.59019713898482,19.598500034832348 A 59.94119651240684 59.94119651240684 0 0 0 78.58691177507734,13.81474808490237 L 77.24981742367913,11.129198104831431 L 85.0760441204759,11.14245292831838 L 80.36970424360828,17.39548139166362 L 79.03260989221008,14.709931411592681 A 60.94119651240684 60.94119651240684 0 0 1 59.71897274303158,20.590173793586906"/><text text-anchor="middle" pointer-events="none" font-size="8px" fill="#000000" x="50.00858537349223" y="23.56887698114587" transform="rotate(180 50.00858537349223 20.56887698114587)" font-family="sans-serif">trek</text></g><g class="relationship" transform="translate(31.184479915936663 41.604776065304705) rotate(451.894466034639)"><path class="outline" fill="#A5ABB6" stroke="none" d="M 25 0.5 L 40.16811560261116 0.5 L 40.16811560261116 -0.5 L 25 -0.5 Z M 59.50405310261116 0.5 L 74.67216870522232 0.5 L 74.67216870522232 3.5 L 81.67216870522232 0 L 74.67216870522232 -3.5 L 74.67216870522232 -0.5 L 59.50405310261116 -0.5 Z"/><text text-anchor="middle" pointer-events="none" font-size="8px" fill="#000000" x="49.83608435261116" y="3" transform="rotate(180 49.83608435261116 0)" font-family="sans-serif">trek</text></g><g class="relationship" transform="translate(27.65804251461553 148.21863921419344) rotate(385.01909868990765)"><path class="outline" fill="#A5ABB6" stroke="none" d="M 25 0.5 L 40.50375160729473 0.5 L 40.50375160729473 -0.5 L 25 -0.5 Z M 59.83968910729473 0.5 L 75.34344071458946 0.5 L 75.34344071458946 3.5 L 82.34344071458946 0 L 75.34344071458946 -3.5 L 75.34344071458946 -0.5 L 59.83968910729473 -0.5 Z"/><text text-anchor="middle" pointer-events="none" font-size="8px" fill="#000000" x="50.17172035729473" y="3" font-family="sans-serif">trek</text></g><g class="relationship" transform="translate(133.3699311781968 8.365561481795057) rotate(521.9811615749777)"><path class="outline" fill="#A5ABB6" stroke="none" d="M 25 0.5 L 39.22195426886686 0.5 L 39.22195426886686 -0.5 L 25 -0.5 Z M 61.23367301886686 0.5 L 75.45562728773372 0.5 L 75.45562728773372 3.5 L 82.45562728773372 0 L 75.45562728773372 -3.5 L 75.45562728773372 -0.5 L 61.23367301886686 -0.5 Z"/><text text-anchor="middle" pointer-events="none" font-size="8px" fill="#000000" x="50.22781364386686" y="3" transform="rotate(180 50.22781364386686 0)" font-family="sans-serif">road</text></g><g class="relationship" transform="translate(133.3699311781968 8.365561481795057) rotate(521.9811615749777)"><path class="outline" fill="#A5ABB6" stroke="none" d="M 21.40063509461097,-12.933012701892217 L 21.90063509461097,-12.06698729810778 A 59.94119651240684 59.94119651240684 0 0 1 23.471252859369727,-12.942637990726645 L 22.997455502228778,-13.82327188989602 A 60.94119651240684 60.94119651240684 0 0 0 21.40063509461097,-12.933012701892217 Z M 77.38397744420745,-15.500126253010144 L 76.96533216722804,-14.591976412916104 A 59.94119651240684 59.94119651240684 0 0 1 78.58691177507734,-13.81474808490237 L 77.24981742367913,-11.129198104831431 L 85.0760441204759,-11.14245292831838 L 80.36970424360828,-17.39548139166362 L 79.03260989221008,-14.709931411592681 A 60.94119651240684 60.94119651240684 0 0 0 77.38397744420745,-15.500126253010144"/><text text-anchor="middle" pointer-events="none" font-size="8px" fill="#000000" x="50.00858537349221" y="-17.56887698114587" transform="rotate(180 50.00858537349221 -20.56887698114587)" font-family="sans-serif">PublicTrans…</text></g></g><g class="layer nodes"><g class="node" transform="translate(133.3699311781968,8.365561481795057)"><circle class="outline" cx="0" cy="0" r="25" fill="#D9C8AE" stroke="#c0a378" stroke-width="2px"/><text text-anchor="middle" pointer-events="none" font-family="sans-serif" dy="1.5625" font-size="25" fill="#2A2C34"/><text text-anchor="middle" pointer-events="none" x="0" y="5" font-size="10px" fill="#2A2C34" font-family="sans-serif"> Darjeeling</text></g><g class="node" transform="translate(124.92911147429005,193.61636391366298)"><circle class="outline" cx="0" cy="0" r="25" fill="#8DCC93" stroke="#5db665" stroke-width="2px"/><text text-anchor="middle" pointer-events="none" font-family="sans-serif" dy="1.5625" font-size="25" fill="#2A2C34"/><text text-anchor="middle" pointer-events="none" x="0" y="5" font-size="10px" fill="#2A2C34" font-family="sans-serif"> Sandak…</text></g><g class="node" transform="translate(31.184479915936663,41.604776065304705)"><circle class="outline" cx="0" cy="0" r="25" fill="#D9C8AE" stroke="#c0a378" stroke-width="2px"/><text text-anchor="middle" pointer-events="none" font-family="sans-serif" dy="1.5625" font-size="25" fill="#2A2C34"/><text text-anchor="middle" pointer-events="none" x="0" y="5" font-size="10px" fill="#2A2C34" font-family="sans-serif"> Rimbik</text></g><g class="node" transform="translate(27.65804251461553,148.21863921419344)"><circle class="outline" cx="0" cy="0" r="25" fill="#F16667" stroke="#eb2728" stroke-width="2px"/><text text-anchor="middle" pointer-events="none" font-family="sans-serif" dy="1.5625" font-size="25" fill="#FFFFFF"/><text text-anchor="middle" pointer-events="none" x="0" y="5" font-size="10px" fill="#FFFFFF" font-family="sans-serif"> BhikeBh…</text></g></g></svg>