<svg xmlns="http://www.w3.org/2000/svg" width="391.1213073730469" height="305.1058044433594" viewBox="-96.1914291381836 -78.6760025024414 391.1213073730469 305.1058044433594"><title>Neo4j Graph Visualization</title><desc>Created using Neo4j (http://www.neo4j.com/)</desc><g class="layer relationships"><g class="relationship" transform="translate(265.9298739282511 68.84506243429448) rotate(528.4541642381358)"><path class="outline" fill="#A5ABB6" stroke="none" d="M 25 0.5 L 31.02745648846095 0.5 L 31.02745648846095 -0.5 L 25 -0.5 Z M 65.47276898846096 0.5 L 71.5002254769219 0.5 L 71.5002254769219 3.5 L 78.5002254769219 0 L 71.5002254769219 -3.5 L 71.5002254769219 -0.5 L 65.47276898846096 -0.5 Z"/><text text-anchor="middle" pointer-events="none" font-size="8px" fill="#000000" x="48.25011273846095" y="3" transform="rotate(180 48.25011273846095 0)" font-family="sans-serif">ORIGIN</text></g><g class="relationship" transform="translate(265.9298739282511 68.84506243429448) rotate(227.71203394518795)"><path class="outline" fill="#A5ABB6" stroke="none" d="M 25 0.5 L 25.27653905396297 0.5 L 25.27653905396297 -0.5 L 25 -0.5 Z M 78.24138280396298 0.5 L 78.51792185792594 0.5 L 78.51792185792594 3.5 L 85.51792185792594 0 L 78.51792185792594 -3.5 L 78.51792185792594 -0.5 L 78.24138280396298 -0.5 Z"/><text text-anchor="middle" pointer-events="none" font-size="8px" fill="#000000" x="51.75896092896297" y="3" transform="rotate(180 51.75896092896297 0)" font-family="sans-serif">DESTINAT…</text></g><g class="relationship" transform="translate(84.95342201796832 8.97035417744848) rotate(348.40064018880435)"><path class="outline" fill="#A5ABB6" stroke="none" d="M 5.987513214418485,24.277555179777966 L 6.953439040707552,24.018736134675446 A 47.2414420694855 47.2414420694855 0 0 0 22.62056708097579,48.31402578441237 L 21.98628075072971,49.08712400020579 A 48.2414420694855 48.2414420694855 0 0 1 5.987513214418485,24.277555179777966 Z M 78.41525107182126,52.53538312607975 L 77.87981759477358,51.690805721896666 A 47.2414420694855 47.2414420694855 0 0 0 96.38859761750072,29.48393601306393 L 93.60692366608052,28.360419200554947 L 99.47374917192505,23.180616261834963 L 100.09749621939432,30.981958429742573 L 97.31582226797411,29.85844161723359 A 48.2414420694855 48.2414420694855 0 0 1 78.41525107182126,52.53538312607975"/><text text-anchor="middle" pointer-events="none" font-size="8px" fill="#000000" x="49.673217799557406" y="62.44430451796114" font-family="sans-serif">CONNECTION</text></g><g class="relationship" transform="translate(2.6117816644656906 86.29909960714573) rotate(316.79822582634887)"><path class="outline" fill="#A5ABB6" stroke="none" d="M 5.987513214418485,24.277555179777966 L 6.953439040707552,24.018736134675446 A 49.445063898076704 49.445063898076704 0 0 0 24.504634481635996,50.36507689700237 L 23.893672205947396,51.15673660779066 A 50.445063898076704 50.445063898076704 0 0 1 5.987513214418485,24.277555179777966 Z M 80.63142673101012,54.4993055854213 L 80.1176455701615,53.64138430770578 A 49.445063898076704 49.445063898076704 0 0 0 100.64095918306194,29.53811209589089 L 97.85439654242943,28.426775670756168 L 103.69850461514838,23.22135533860418 L 104.3563760372386,31.019893996070525 L 101.5698133966061,29.908557570935802 A 50.445063898076704 50.445063898076704 0 0 1 80.63142673101012,54.4993055854213"/><text text-anchor="middle" pointer-events="none" font-size="8px" fill="#000000" x="51.77640219448895" y="64.0800287228523" font-family="sans-serif">CONNECTION</text></g><g class="relationship" transform="translate(-67.19142956890485 166.4042701791479) rotate(311.06871738457073)"><path class="outline" fill="#A5ABB6" stroke="none" d="M 25 0.5 L 32.402965277799815 0.5 L 32.402965277799815 -0.5 L 25 -0.5 Z M 66.84827777779981 0.5 L 74.25124305559963 0.5 L 74.25124305559963 3.5 L 81.25124305559963 0 L 74.25124305559963 -3.5 L 74.25124305559963 -0.5 L 66.84827777779981 -0.5 Z"/><text text-anchor="middle" pointer-events="none" font-size="8px" fill="#000000" x="49.625621527799815" y="3" font-family="sans-serif">ORIGIN</text></g><g class="relationship" transform="translate(-67.19142956890485 166.4042701791479) rotate(377.4597604474897)"><path class="outline" fill="#A5ABB6" stroke="none" d="M 25 0.5 L 26.535060800097867 0.5 L 26.535060800097867 -0.5 L 25 -0.5 Z M 69.87099830009787 0.5 L 71.40605910019573 0.5 L 71.40605910019573 3.5 L 78.40605910019573 0 L 71.40605910019573 -3.5 L 71.40605910019573 -0.5 L 69.87099830009787 -0.5 Z"/><text text-anchor="middle" pointer-events="none" font-size="8px" fill="#000000" x="48.20302955009787" y="3" font-family="sans-serif">DESTIN…</text></g><g class="relationship" transform="translate(164.52398589236412 89.5608184047347) rotate(284.78345717344916)"><path class="outline" fill="#A5ABB6" stroke="none" d="M 21.40063509461097,12.933012701892217 L 21.90063509461097,12.06698729810778 A 58.41613147330815 58.41613147330815 0 0 0 22.867519922107572,12.613031968627716 L 22.3840715971862,13.488404870384862 A 59.41613147330815 59.41613147330815 0 0 1 21.40063509461097,12.933012701892217 Z M 76.53107662490011,15.179828805188748 L 76.10320669861493,14.275988484014306 A 58.41613147330815 58.41613147330815 0 0 0 77.10228743714987,13.791355912126326 L 75.76736919023915,11.10472358259837 L 83.59358258053355,11.12431872425598 L 78.88217843303082,17.373532351496937 L 77.5472601861201,14.68690002196898 A 59.41613147330815 59.41613147330815 0 0 1 76.53107662490011,15.179828805188748"/><text text-anchor="middle" pointer-events="none" font-size="8px" fill="#000000" x="49.269197969241866" y="23.364541078175883" font-family="sans-serif">CONNECTI…</text></g><g class="relationship" transform="translate(164.52398589236412 89.5608184047347) rotate(284.78345717344916)"><path class="outline" fill="#A5ABB6" stroke="none" d="M 25 0.5 L 25.157108288299938 0.5 L 25.157108288299938 -0.5 L 25 -0.5 Z M 73.82507703829994 0.5 L 73.98218532659988 0.5 L 73.98218532659988 3.5 L 80.98218532659988 0 L 73.98218532659988 -3.5 L 73.98218532659988 -0.5 L 73.82507703829994 -0.5 Z"/><text text-anchor="middle" pointer-events="none" font-size="8px" fill="#000000" x="49.49109266329994" y="3" font-family="sans-serif">CONNEC…</text></g><g class="relationship" transform="translate(164.52398589236412 89.5608184047347) rotate(284.78345717344916)"><path class="outline" fill="#A5ABB6" stroke="none" d="M 21.40063509461097,-12.933012701892217 L 21.90063509461097,-12.06698729810778 A 58.41613147330815 58.41613147330815 0 0 1 22.86751992210755,-12.613031968627702 L 22.38407159718618,-13.488404870384848 A 59.41613147330815 59.41613147330815 0 0 0 21.40063509461097,-12.933012701892217 Z M 76.5310766249001,-15.179828805188755 L 76.10320669861491,-14.275988484014313 A 58.41613147330815 58.41613147330815 0 0 1 77.10228743714987,-13.791355912126326 L 75.76736919023915,-11.10472358259837 L 83.59358258053355,-11.12431872425598 L 78.88217843303082,-17.373532351496937 L 77.5472601861201,-14.68690002196898 A 59.41613147330815 59.41613147330815 0 0 0 76.5310766249001,-15.179828805188755"/><text text-anchor="middle" pointer-events="none" font-size="8px" fill="#000000" x="49.269197969241844" y="-17.364541078175883" font-family="sans-serif">CONNECTI…</text></g><g class="relationship" transform="translate(84.95342201796832 8.97035417744848) rotate(405.3648527770877)"><path class="outline" fill="#A5ABB6" stroke="none" d="M 5.987513214418485,24.277555179777966 L 6.953439040707552,24.018736134675446 A 49.60178447904096 49.60178447904096 0 0 0 24.639714940440978,50.50977165606643 L 24.03035442899873,51.30266494465881 A 50.60178447904096 50.60178447904096 0 0 1 5.987513214418485,24.277555179777966 Z M 80.78852776835922,54.63790476440237 L 80.27622480639432,53.77909996984077 A 49.60178447904096 49.60178447904096 0 0 0 100.94341339836676,29.541801566327674 L 98.15651791567706,28.431300072153192 L 103.99906613188882,23.224129022414125 L 104.65927404195301,31.022470225226982 L 101.87237855926331,29.9119687310525 A 50.60178447904096 50.60178447904096 0 0 1 80.78852776835922,54.63790476440237"/><text text-anchor="middle" pointer-events="none" font-size="8px" fill="#000000" x="51.926058345456646" y="64.1963566153191" font-family="sans-serif">CONNECTION</text></g><g class="relationship" transform="translate(84.95342201796832 8.97035417744848) rotate(405.3648527770877)"><path class="outline" fill="#A5ABB6" stroke="none" d="M 17.324116139070416,18.03122292025696 L 18.031222920256962,17.324116139070412 A 52.09094546791396 52.09094546791396 0 0 0 25.016444930389625,23.181300831207366 L 24.443434813170047,24.000849124820384 A 53.09094546791396 53.09094546791396 0 0 1 17.324116139070416,18.03122292025696 Z M 81.54259829663432,26.391875218112084 L 81.0401112084411,25.527290504969926 A 52.09094546791396 52.09094546791396 0 0 0 88.49055901051364,20.274599137943067 L 86.55401466430736,17.9833558083998 L 94.15955083714896,16.137869551718968 L 91.07261813878866,23.329590244000755 L 89.13607379258238,21.038346914457488 A 53.09094546791396 53.09094546791396 0 0 1 81.54259829663432,26.391875218112084"/><text text-anchor="middle" pointer-events="none" font-size="8px" fill="#000000" x="52.66476742368927" y="36.03515191074021" font-family="sans-serif">CONNECTION</text></g><g class="relationship" transform="translate(84.95342201796832 8.97035417744848) rotate(348.40064018880435)"><path class="outline" fill="#A5ABB6" stroke="none" d="M 17.324116139070416,18.03122292025696 L 18.031222920256962,17.324116139070412 A 48.866657774831395 48.866657774831395 0 0 0 23.05393680451077,21.704174516909944 L 22.449614091500067,22.50091415979172 A 49.866657774831395 49.866657774831395 0 0 1 17.324116139070416,18.03122292025696 Z M 79.15680561796715,24.967702168626204 L 78.62395182754096,24.12149484294978 A 48.866657774831395 48.866657774831395 0 0 0 84.00804200310286,20.19413706223048 L 82.07894297563523,17.89662167768494 L 89.69042773828706,16.07582522889693 L 86.58017403972637,23.257490908291203 L 84.65107501225874,20.959975523745662 A 49.866657774831395 49.866657774831395 0 0 1 79.15680561796715,24.967702168626204"/><text text-anchor="middle" pointer-events="none" font-size="8px" fill="#000000" x="50.439725414177154" y="35.09018702923741" font-family="sans-serif">CONNECTION</text></g><g class="relationship" transform="translate(84.95342201796832 8.97035417744848) rotate(405.3648527770877)"><path class="outline" fill="#A5ABB6" stroke="none" d="M 24.018736134675446,6.953439040707552 L 24.277555179777966,5.987513214418485 A 118.1811350364251 118.1811350364251 0 0 0 25.617096062179122,6.338044515711175 L 25.3696116592933,7.306936393233244 A 119.1811350364251 119.1811350364251 0 0 1 24.018736134675446,6.953439040707552 Z M 80.86154719896359,8.144638496076567 L 80.64342154097267,7.168717803947317 A 118.1811350364251 118.1811350364251 0 0 0 81.99293281200988,6.858780232566637 L 81.30429881544323,3.9388858477005284 L 88.92079204279192,5.738616638055461 L 82.91111147409875,10.75197274572145 L 82.2224774775321,7.832078360855341 A 119.1811350364251 119.1811350364251 0 0 1 80.86154719896359,8.144638496076567"/><text text-anchor="middle" pointer-events="none" font-size="8px" fill="#000000" x="53.073686279564384" y="13.500917108615738" font-family="sans-serif">CONNECTI…</text></g><g class="relationship" transform="translate(84.95342201796832 8.97035417744848) rotate(405.3648527770877)"><path class="outline" fill="#A5ABB6" stroke="none" d="M 24.018736134675446,-6.953439040707552 L 24.277555179777966,-5.987513214418485 A 118.1811350364251 118.1811350364251 0 0 1 25.617096062179098,-6.338044515711161 L 25.369611659293273,-7.306936393233229 A 119.1811350364251 119.1811350364251 0 0 0 24.018736134675446,-6.953439040707552 Z M 80.86154719896355,-8.144638496076581 L 80.64342154097262,-7.168717803947331 A 118.1811350364251 118.1811350364251 0 0 1 81.99293281200988,-6.858780232566637 L 81.30429881544323,-3.9388858477005284 L 88.92079204279192,-5.738616638055461 L 82.91111147409875,-10.75197274572145 L 82.2224774775321,-7.832078360855341 A 119.1811350364251 119.1811350364251 0 0 0 80.86154719896355,-8.144638496076581"/><text text-anchor="middle" pointer-events="none" font-size="8px" fill="#000000" x="53.07368627956435" y="-7.500917108615738" font-family="sans-serif">CONNECTI…</text></g><g class="relationship" transform="translate(84.95342201796832 8.97035417744848) rotate(348.40064018880435)"><path class="outline" fill="#A5ABB6" stroke="none" d="M 24.018736134675446,6.953439040707552 L 24.277555179777966,5.987513214418485 A 109.37221724070459 109.37221724070459 0 0 0 24.532711855196215,6.055552200560314 L 24.276225730481116,7.022100113407177 A 110.37221724070459 110.37221724070459 0 0 1 24.018736134675446,6.953439040707552 Z M 77.53709442630678,7.8568429178381365 L 77.31102370811935,6.882732025599367 A 109.37221724070459 109.37221724070459 0 0 0 77.56818725242839,6.822722491989089 L 76.88292128975661,3.902035832930379 L 84.49733378401068,5.71054968893141 L 78.48187520265742,10.716971370734036 L 77.79660923998564,7.796284711675326 A 110.37221724070459 110.37221724070459 0 0 1 77.53709442630678,7.8568429178381365"/><text text-anchor="middle" pointer-events="none" font-size="8px" fill="#000000" x="50.863382709374456" y="13.200789440871588" font-family="sans-serif">CONNECT…</text></g><g class="relationship" transform="translate(84.95342201796832 8.97035417744848) rotate(348.40064018880435)"><path class="outline" fill="#A5ABB6" stroke="none" d="M 24.018736134675446,-6.953439040707552 L 24.277555179777966,-5.987513214418485 A 109.37221724070459 109.37221724070459 0 0 1 24.532711855196222,-6.055552200560314 L 24.276225730481123,-7.022100113407177 A 110.37221724070459 110.37221724070459 0 0 0 24.018736134675446,-6.953439040707552 Z M 77.5370944263068,-7.8568429178381365 L 77.31102370811936,-6.882732025599367 A 109.37221724070459 109.37221724070459 0 0 1 77.56818725242839,-6.822722491989089 L 76.88292128975661,-3.902035832930379 L 84.49733378401068,-5.71054968893141 L 78.48187520265742,-10.716971370734036 L 77.79660923998564,-7.796284711675326 A 110.37221724070459 110.37221724070459 0 0 0 77.5370944263068,-7.8568429178381365"/><text text-anchor="middle" pointer-events="none" font-size="8px" fill="#000000" x="50.86338270937446" y="-7.2007894408715885" font-family="sans-serif">CONNECT…</text></g><g class="relationship" transform="translate(84.95342201796832 8.97035417744848) rotate(405.3648527770877)"><path class="outline" fill="#A5ABB6" stroke="none" d="M 17.324116139070416,-18.03122292025696 L 18.031222920256962,-17.324116139070412 A 52.09094546791396 52.09094546791396 0 0 1 25.016444930389646,-23.181300831207388 L 24.44343481317007,-24.000849124820405 A 53.09094546791396 53.09094546791396 0 0 0 17.324116139070416,-18.03122292025696 Z M 81.54259829663432,-26.391875218112084 L 81.04011120844112,-25.527290504969926 A 52.09094546791396 52.09094546791396 0 0 1 88.49055901051364,-20.274599137943067 L 86.55401466430736,-17.9833558083998 L 94.15955083714896,-16.137869551718968 L 91.07261813878866,-23.329590244000755 L 89.13607379258238,-21.038346914457488 A 53.09094546791396 53.09094546791396 0 0 0 81.54259829663432,-26.391875218112084"/><text text-anchor="middle" pointer-events="none" font-size="8px" fill="#000000" x="52.664767423689284" y="-30.03515191074022" font-family="sans-serif">CONNECTION</text></g><g class="relationship" transform="translate(84.95342201796832 8.97035417744848) rotate(348.40064018880435)"><path class="outline" fill="#A5ABB6" stroke="none" d="M 17.324116139070416,-18.03122292025696 L 18.031222920256962,-17.324116139070412 A 48.866657774831395 48.866657774831395 0 0 1 23.053936804510776,-21.704174516909944 L 22.44961409150007,-22.50091415979172 A 49.866657774831395 49.866657774831395 0 0 0 17.324116139070416,-18.03122292025696 Z M 79.15680561796717,-24.96770216862619 L 78.62395182754098,-24.121494842949772 A 48.866657774831395 48.866657774831395 0 0 1 84.00804200310286,-20.19413706223048 L 82.07894297563523,-17.89662167768494 L 89.69042773828706,-16.07582522889693 L 86.58017403972637,-23.257490908291203 L 84.65107501225874,-20.959975523745662 A 49.866657774831395 49.866657774831395 0 0 0 79.15680561796717,-24.96770216862619"/><text text-anchor="middle" pointer-events="none" font-size="8px" fill="#000000" x="50.43972541417717" y="-29.090187029237413" font-family="sans-serif">CONNECTION</text></g><g class="relationship" transform="translate(84.95342201796832 8.97035417744848) rotate(405.3648527770877)"><path class="outline" fill="#A5ABB6" stroke="none" d="M 5.987513214418485,-24.277555179777966 L 6.953439040707552,-24.018736134675446 A 49.60178447904096 49.60178447904096 0 0 1 24.63971494044096,-50.50977165606641 L 24.030354428998717,-51.302664944658794 A 50.60178447904096 50.60178447904096 0 0 0 5.987513214418485,-24.277555179777966 Z M 80.78852776835922,-54.63790476440237 L 80.27622480639432,-53.77909996984077 A 49.60178447904096 49.60178447904096 0 0 1 100.94341339836676,-29.541801566327674 L 98.15651791567706,-28.431300072153192 L 103.99906613188882,-23.224129022414125 L 104.65927404195301,-31.022470225226982 L 101.87237855926331,-29.9119687310525 A 50.60178447904096 50.60178447904096 0 0 0 80.78852776835922,-54.63790476440237"/><text text-anchor="middle" pointer-events="none" font-size="8px" fill="#000000" x="51.92605834545664" y="-58.19635661531911" font-family="sans-serif">CONNECTION</text></g><g class="relationship" transform="translate(84.95342201796832 8.97035417744848) rotate(348.40064018880435)"><path class="outline" fill="#A5ABB6" stroke="none" d="M 5.987513214418485,-24.277555179777966 L 6.953439040707552,-24.018736134675446 A 47.2414420694855 47.2414420694855 0 0 1 22.620567080975782,-48.314025784412365 L 21.986280750729705,-49.08712400020578 A 48.2414420694855 48.2414420694855 0 0 0 5.987513214418485,-24.277555179777966 Z M 78.41525107182125,-52.53538312607976 L 77.87981759477357,-51.69080572189667 A 47.2414420694855 47.2414420694855 0 0 1 96.38859761750072,-29.48393601306393 L 93.60692366608052,-28.360419200554947 L 99.47374917192505,-23.180616261834963 L 100.09749621939432,-30.981958429742573 L 97.31582226797411,-29.85844161723359 A 48.2414420694855 48.2414420694855 0 0 0 78.41525107182125,-52.53538312607976"/><text text-anchor="middle" pointer-events="none" font-size="8px" fill="#000000" x="49.67321779955739" y="-56.44430451796114" font-family="sans-serif">CONNECTION</text></g><g class="relationship" transform="translate(2.6117816644656906 86.29909960714573) rotate(316.79822582634887)"><path class="outline" fill="#A5ABB6" stroke="none" d="M 13.473521019338785,21.06452542407343 L 14.30499063164133,20.50895519105383 A 48.599145432182326 48.599145432182326 0 0 0 24.97396612102682,31.94600286828339 L 24.36202661351333,32.73690743847132 A 49.599145432182326 49.599145432182326 0 0 1 13.473521019338785,21.06452542407343 Z M 81.01686387558581,35.55891245643397 L 80.48654908076384,34.71111164351095 A 48.599145432182326 48.599145432182326 0 0 0 92.23926428144061,24.390899292201947 L 89.92283089323838,22.484558200471 L 97.07346572684654,19.303611568351904 L 95.32784213237692,26.93268741450988 L 93.01140874417469,25.02634632277893 A 49.599145432182326 49.599145432182326 0 0 1 81.01686387558581,35.55891245643397"/><text text-anchor="middle" pointer-events="none" font-size="8px" fill="#000000" x="52.271079213025594" y="45.54706561198864" font-family="sans-serif">CONNECTION</text></g><g class="relationship" transform="translate(2.6117816644656906 86.29909960714573) rotate(435.45247761303824)"><path class="outline" fill="#A5ABB6" stroke="none" d="M 5.987513214418485,24.277555179777966 L 6.953439040707552,24.018736134675446 A 50.43320354891458 50.43320354891458 0 0 0 25.358562187737956,51.27491113760048 L 24.757576953199706,52.07417126288324 A 51.43320354891458 51.43320354891458 0 0 1 5.987513214418485,24.277555179777966 Z M 81.62092882567502,55.37094246904668 L 81.11633735199995,54.50758423245286 A 50.43320354891458 50.43320354891458 0 0 0 102.54802234037341,29.561031115708374 L 99.75939225996571,28.45489266386551 L 105.59378374140805,23.23858400339754 L 106.26619578091702,31.03588238483219 L 103.47756570050932,29.929743932989325 A 51.43320354891458 51.43320354891458 0 0 1 81.62092882567502,55.37094246904668"/><text text-anchor="middle" pointer-events="none" font-size="8px" fill="#000000" x="52.72016481478715" y="64.81347934130977" font-family="sans-serif">CONNECTION</text></g><g class="relationship" transform="translate(2.6117816644656906 86.29909960714573) rotate(435.45247761303824)"><path class="outline" fill="#A5ABB6" stroke="none" d="M 10.396609043987748,22.74116356711926 L 11.29757791189017,22.307279828001697 A 49.24764497413588 49.24764497413588 0 0 0 25.697008131810783,40.01714026752707 L 25.088427462927484,40.81063227722947 A 50.24764497413588 50.24764497413588 0 0 1 10.396609043987748,22.74116356711926 Z M 81.81797291473589,43.846563993983686 L 81.297554493592,42.992652601078014 A 49.24764497413588 49.24764497413588 0 0 0 97.5048462385976,26.920737913085727 L 94.95629756731766,25.33805042968376 L 101.62254181174885,21.23790559399953 L 100.90291113363752,29.030987890955018 L 98.35436246235759,27.448300407553052 A 50.24764497413588 50.24764497413588 0 0 1 81.81797291473589,43.846563993983686"/><text text-anchor="middle" pointer-events="none" font-size="8px" fill="#000000" x="53.00968786528629" y="53.61608773168537" font-family="sans-serif">CONNECTION</text></g><g class="relationship" transform="translate(2.6117816644656906 86.29909960714573) rotate(435.45247761303824)"><path class="outline" fill="#A5ABB6" stroke="none" d="M 14.44320574945421,20.411854586953456 L 15.247803529220876,19.818034401379958 A 50.23673981998625 50.23673981998625 0 0 0 25.81228297839039,30.388868270722476 L 25.217979088852772,31.193108836026447 A 51.23673981998625 51.23673981998625 0 0 1 14.44320574945421,20.411854586953456 Z M 82.08930211411433,33.8855038625994 L 81.57363446320907,33.02871516413878 A 50.23673981998625 50.23673981998625 0 0 0 93.08951242051633,23.503206799879834 L 90.85481289362559,21.501677878151668 L 98.13219649236385,18.622496057422808 L 96.06911178970398,26.17191202885072 L 93.83441226281325,24.170383107122554 A 51.23673981998625 51.23673981998625 0 0 1 82.08930211411433,33.8855038625994"/><text text-anchor="middle" pointer-events="none" font-size="8px" fill="#000000" x="53.26888768935969" y="43.66642251701688" font-family="sans-serif">CONNECTION</text></g><g class="relationship" transform="translate(2.6117816644656906 86.29909960714573) rotate(435.45247761303824)"><path class="outline" fill="#A5ABB6" stroke="none" d="M 17.9862104268602,17.370844380187897 L 18.666383164631117,16.637792508358068 A 54.40057742938909 54.40057742938909 0 0 0 25.669524061482186,22.141104693051453 L 25.11808416493783,22.97531931801265 A 55.40057742938909 55.40057742938909 0 0 1 17.9862104268602,17.370844380187897 Z M 82.45876512508632,25.251492585023968 L 81.97518546730865,24.37619222824143 A 54.40057742938909 54.40057742938909 0 0 0 89.39251808750642,19.44530952585508 L 87.53273937761043,17.091329247641692 L 95.195101854987,15.498155915799984 L 91.87222303403442,22.583949896806264 L 90.01244432413843,20.229969618592875 A 55.40057742938909 55.40057742938909 0 0 1 82.45876512508632,25.251492585023968"/><text text-anchor="middle" pointer-events="none" font-size="8px" fill="#000000" x="53.49057596988167" y="34.61672131971991" font-family="sans-serif">CONNECTION</text></g><g class="relationship" transform="translate(2.6117816644656906 86.29909960714573) rotate(435.45247761303824)"><path class="outline" fill="#A5ABB6" stroke="none" d="M 20.90208894244944,13.724164012497553 L 21.434121018964774,12.87743981326927 A 64.34584180780305 64.34584180780305 0 0 0 25.285794226292083,15.115492792522588 L 24.81362107926021,15.99699861735985 A 65.34584180780305 65.34584180780305 0 0 1 20.90208894244944,13.724164012497553 Z M 82.91389466462441,17.789120876266345 L 82.49694813735091,16.88018985941492 A 64.34584180780305 64.34584180780305 0 0 0 86.47923482139659,14.883777978048746 L 85.04272885125187,12.250063757078944 L 92.86398566535026,11.970883084539356 L 88.3945761149229,18.395396939341815 L 86.95807014477818,15.761682718372013 A 65.34584180780305 65.34584180780305 0 0 1 82.91389466462441,17.789120876266345"/><text text-anchor="middle" pointer-events="none" font-size="8px" fill="#000000" x="53.668932144473196" y="26.20927395104377" font-family="sans-serif">CONNECTION</text></g><g class="relationship" transform="translate(2.6117816644656906 86.29909960714573) rotate(316.79822582634887)"><path class="outline" fill="#A5ABB6" stroke="none" d="M 19.529452792776517,15.615712395363635 L 20.13821422178524,14.822359055072399 A 56.79645157034485 56.79645157034485 0 0 0 24.66023563251478,17.956334723969825 L 24.13109223043735,18.804867139401267 A 57.79645157034485 57.79645157034485 0 0 1 19.529452792776517,15.615712395363635 Z M 81.69511104907713,20.874674187767738 L 81.2282760259293,19.99032976325737 A 56.79645157034485 56.79645157034485 0 0 0 85.96370297608541,17.189220566515374 L 84.31307170231607,14.68414244436936 L 92.08399047338766,13.755260614744564 L 88.16454467444454,20.52932472937672 L 86.5139134006752,18.024246607230708 A 57.79645157034485 57.79645157034485 0 0 1 81.69511104907713,20.874674187767738"/><text text-anchor="middle" pointer-events="none" font-size="8px" fill="#000000" x="52.65484750018055" y="30.02215327374956" font-family="sans-serif">CONNECTION</text></g><g class="relationship" transform="translate(2.6117816644656906 86.29909960714573) rotate(435.45247761303824)"><path class="outline" fill="#A5ABB6" stroke="none" d="M 23.08917320392191,9.598962483481976 L 23.454514228288303,8.668088734837774 A 88.17421662042172 88.17421662042172 0 0 0 24.76047667642746,9.168724822683913 L 24.409946812264064,10.105276377233693 A 89.17421662042172 89.17421662042172 0 0 1 23.08917320392191,9.598962483481976 Z M 83.37943076386745,11.348255320529859 L 83.06867661358737,10.397764995443012 A 88.17421662042172 88.17421662042172 0 0 0 84.39457489246176,9.952604167784852 L 83.41720067324889,7.1162791448691065 L 91.17556231580065,8.144785160107405 L 85.69774051807894,13.734370865005843 L 84.72036629886607,10.898045842090099 A 89.17421662042172 89.17421662042172 0 0 1 83.37943076386745,11.348255320529859"/><text text-anchor="middle" pointer-events="none" font-size="8px" fill="#000000" x="53.79948247730867" y="18.243549535814566" font-family="sans-serif">CONNECTION</text></g><g class="relationship" transform="translate(2.6117816644656906 86.29909960714573) rotate(435.45247761303824)"><path class="outline" fill="#A5ABB6" stroke="none" d="M 24.471206027250748,5.139073415689509 L 24.657117634413662,4.15650694245622 A 166.80537428472064 166.80537428472064 0 0 0 26.23398581343155,4.4470234413471985 L 26.05752754783979,5.431331564093512 A 167.80537428472064 167.80537428472064 0 0 1 24.471206027250748,5.139073415689509 Z M 81.73965750192176,6.026811359084661 L 81.58429010226631,5.038954602705303 A 166.80537428472064 166.80537428472064 0 0 0 83.16701065164092,4.782227602344493 L 82.67244317289281,1.8232745765320297 L 90.15366229166136,4.1213956562343 L 83.82643395663841,8.727498303427776 L 83.3318664778903,5.768545277615313 A 167.80537428472064 167.80537428472064 0 0 1 81.73965750192176,6.026811359084661"/><text text-anchor="middle" pointer-events="none" font-size="8px" fill="#000000" x="53.87906612133983" y="10.554946577164458" font-family="sans-serif">CONNECTI…</text></g><g class="relationship" transform="translate(2.6117816644656906 86.29909960714573) rotate(435.45247761303824)"><path class="outline" fill="#A5ABB6" stroke="none" d="M 25 0.5 L 26.01713021171595 0.5 L 26.01713021171595 -0.5 L 25 -0.5 Z M 81.79447396171595 0.5 L 82.8116041734319 0.5 L 82.8116041734319 3.5 L 89.8116041734319 0 L 82.8116041734319 -3.5 L 82.8116041734319 -0.5 L 81.79447396171595 -0.5 Z"/><text text-anchor="middle" pointer-events="none" font-size="8px" fill="#000000" x="53.90580208671595" y="3" font-family="sans-serif">CONNECTI…</text></g><g class="relationship" transform="translate(2.6117816644656906 86.29909960714573) rotate(316.79822582634887)"><path class="outline" fill="#A5ABB6" stroke="none" d="M 23.51253350472606,8.509451697326591 L 23.833972970029226,7.562521567831486 A 96.06701604988024 96.06701604988024 0 0 0 25.62598440267647,8.151271690234452 L 25.3231987012387,9.104330355272879 A 97.06701604988024 97.06701604988024 0 0 1 23.51253350472606,8.509451697326591 Z M 80.6034265695166,10.144439477462711 L 80.33670647879248,9.180665441080677 A 96.06701604988024 96.06701604988024 0 0 0 82.1495966474261,8.659742301030665 L 81.2928230783124,5.784687683937596 L 89.00085301549554,7.139779742614199 L 83.29196140624437,12.493148457154755 L 82.43518783713067,9.618093840061686 A 97.06701604988024 97.06701604988024 0 0 1 80.6034265695166,10.144439477462711"/><text text-anchor="middle" pointer-events="none" font-size="8px" fill="#000000" x="52.89709603295637" y="16.14369725813914" font-family="sans-serif">CONNECTI…</text></g><g class="relationship" transform="translate(2.6117816644656906 86.29909960714573) rotate(316.79822582634887)"><path class="outline" fill="#A5ABB6" stroke="none" d="M 25 0.5 L 25.09114887063555 0.5 L 25.09114887063555 -0.5 L 25 -0.5 Z M 80.86849262063555 0.5 L 80.9596414912711 0.5 L 80.9596414912711 3.5 L 87.9596414912711 0 L 80.9596414912711 -3.5 L 80.9596414912711 -0.5 L 80.86849262063555 -0.5 Z"/><text text-anchor="middle" pointer-events="none" font-size="8px" fill="#000000" x="52.97982074563555" y="3" font-family="sans-serif">CONNECTI…</text></g><g class="relationship" transform="translate(2.6117816644656906 86.29909960714573) rotate(435.45247761303824)"><path class="outline" fill="#A5ABB6" stroke="none" d="M 24.471206027250748,-5.139073415689509 L 24.657117634413662,-4.15650694245622 A 166.80537428472064 166.80537428472064 0 0 1 26.233985813431513,-4.4470234413471985 L 26.057527547839754,-5.431331564093512 A 167.80537428472064 167.80537428472064 0 0 0 24.471206027250748,-5.139073415689509 Z M 81.73965750192176,-6.026811359084661 L 81.58429010226631,-5.038954602705303 A 166.80537428472064 166.80537428472064 0 0 1 83.16701065164092,-4.782227602344493 L 82.67244317289281,-1.8232745765320297 L 90.15366229166136,-4.1213956562343 L 83.82643395663841,-8.727498303427776 L 83.3318664778903,-5.768545277615313 A 167.80537428472064 167.80537428472064 0 0 0 81.73965750192176,-6.026811359084661"/><text text-anchor="middle" pointer-events="none" font-size="8px" fill="#000000" x="53.87906612133981" y="-4.554946577164458" font-family="sans-serif">CONNECTI…</text></g><g class="relationship" transform="translate(2.6117816644656906 86.29909960714573) rotate(435.45247761303824)"><path class="outline" fill="#A5ABB6" stroke="none" d="M 23.08917320392191,-9.598962483481976 L 23.454514228288303,-8.668088734837774 A 88.17421662042172 88.17421662042172 0 0 1 24.760476676427448,-9.168724822683913 L 24.409946812264057,-10.105276377233679 A 89.17421662042172 89.17421662042172 0 0 0 23.08917320392191,-9.598962483481976 Z M 83.3794307638674,-11.348255320529887 L 83.06867661358734,-10.397764995443026 A 88.17421662042172 88.17421662042172 0 0 1 84.39457489246176,-9.952604167784852 L 83.41720067324889,-7.1162791448691065 L 91.17556231580065,-8.144785160107405 L 85.69774051807894,-13.734370865005843 L 84.72036629886607,-10.898045842090099 A 89.17421662042172 89.17421662042172 0 0 0 83.3794307638674,-11.348255320529887"/><text text-anchor="middle" pointer-events="none" font-size="8px" fill="#000000" x="53.79948247730865" y="-12.243549535814566" font-family="sans-serif">CONNECTION</text></g><g class="relationship" transform="translate(2.6117816644656906 86.29909960714573) rotate(435.45247761303824)"><path class="outline" fill="#A5ABB6" stroke="none" d="M 20.90208894244944,-13.724164012497553 L 21.434121018964774,-12.87743981326927 A 64.34584180780305 64.34584180780305 0 0 1 25.285794226292076,-15.115492792522588 L 24.8136210792602,-15.99699861735985 A 65.34584180780305 65.34584180780305 0 0 0 20.90208894244944,-13.724164012497553 Z M 82.91389466462441,-17.789120876266345 L 82.49694813735091,-16.88018985941492 A 64.34584180780305 64.34584180780305 0 0 1 86.47923482139659,-14.883777978048746 L 85.04272885125187,-12.250063757078944 L 92.86398566535026,-11.970883084539356 L 88.3945761149229,-18.395396939341815 L 86.95807014477818,-15.761682718372013 A 65.34584180780305 65.34584180780305 0 0 0 82.91389466462441,-17.789120876266345"/><text text-anchor="middle" pointer-events="none" font-size="8px" fill="#000000" x="53.66893214447319" y="-20.20927395104377" font-family="sans-serif">CONNECTION</text></g><g class="relationship" transform="translate(2.6117816644656906 86.29909960714573) rotate(316.79822582634887)"><path class="outline" fill="#A5ABB6" stroke="none" d="M 23.51253350472606,-8.509451697326591 L 23.833972970029226,-7.562521567831486 A 96.06701604988024 96.06701604988024 0 0 1 25.62598440267646,-8.151271690234452 L 25.323198701238688,-9.104330355272879 A 97.06701604988024 97.06701604988024 0 0 0 23.51253350472606,-8.509451697326591 Z M 80.60342656951663,-10.144439477462711 L 80.33670647879251,-9.180665441080677 A 96.06701604988024 96.06701604988024 0 0 1 82.1495966474261,-8.659742301030665 L 81.2928230783124,-5.784687683937596 L 89.00085301549554,-7.139779742614199 L 83.29196140624437,-12.493148457154755 L 82.43518783713067,-9.618093840061686 A 97.06701604988024 97.06701604988024 0 0 0 80.60342656951663,-10.144439477462711"/><text text-anchor="middle" pointer-events="none" font-size="8px" fill="#000000" x="52.89709603295638" y="-10.143697258139142" font-family="sans-serif">CONNECTI…</text></g><g class="relationship" transform="translate(2.6117816644656906 86.29909960714573) rotate(316.79822582634887)"><path class="outline" fill="#A5ABB6" stroke="none" d="M 19.529452792776517,-15.615712395363635 L 20.13821422178524,-14.822359055072399 A 56.79645157034485 56.79645157034485 0 0 1 24.660235632514787,-17.956334723969825 L 24.131092230437357,-18.804867139401274 A 57.79645157034485 57.79645157034485 0 0 0 19.529452792776517,-15.615712395363635 Z M 81.69511104907713,-20.874674187767745 L 81.22827602592929,-19.990329763257378 A 56.79645157034485 56.79645157034485 0 0 1 85.96370297608541,-17.189220566515374 L 84.31307170231607,-14.68414244436936 L 92.08399047338766,-13.755260614744564 L 88.16454467444454,-20.52932472937672 L 86.5139134006752,-18.024246607230708 A 57.79645157034485 57.79645157034485 0 0 0 81.69511104907713,-20.874674187767745"/><text text-anchor="middle" pointer-events="none" font-size="8px" fill="#000000" x="52.654847500180544" y="-24.02215327374956" font-family="sans-serif">CONNECTION</text></g><g class="relationship" transform="translate(2.6117816644656906 86.29909960714573) rotate(435.45247761303824)"><path class="outline" fill="#A5ABB6" stroke="none" d="M 17.9862104268602,-17.370844380187897 L 18.666383164631117,-16.637792508358068 A 54.40057742938909 54.40057742938909 0 0 1 25.66952406148219,-22.141104693051453 L 25.118084164937837,-22.97531931801265 A 55.40057742938909 55.40057742938909 0 0 0 17.9862104268602,-17.370844380187897 Z M 82.45876512508632,-25.25149258502396 L 81.97518546730866,-24.376192228241422 A 54.40057742938909 54.40057742938909 0 0 1 89.39251808750642,-19.44530952585508 L 87.53273937761043,-17.091329247641692 L 95.195101854987,-15.498155915799984 L 91.87222303403442,-22.583949896806264 L 90.01244432413843,-20.229969618592875 A 55.40057742938909 55.40057742938909 0 0 0 82.45876512508632,-25.25149258502396"/><text text-anchor="middle" pointer-events="none" font-size="8px" fill="#000000" x="53.49057596988167" y="-28.616721319719908" font-family="sans-serif">CONNECTION</text></g><g class="relationship" transform="translate(2.6117816644656906 86.29909960714573) rotate(316.79822582634887)"><path class="outline" fill="#A5ABB6" stroke="none" d="M 13.473521019338785,-21.06452542407343 L 14.30499063164133,-20.50895519105383 A 48.599145432182326 48.599145432182326 0 0 1 24.97396612102681,-31.946002868283383 L 24.36202661351332,-32.736907438471306 A 49.599145432182326 49.599145432182326 0 0 0 13.473521019338785,-21.06452542407343 Z M 81.0168638755858,-35.55891245643397 L 80.48654908076384,-34.71111164351096 A 48.599145432182326 48.599145432182326 0 0 1 92.23926428144061,-24.390899292201947 L 89.92283089323838,-22.484558200471 L 97.07346572684654,-19.303611568351904 L 95.32784213237692,-26.93268741450988 L 93.01140874417469,-25.02634632277893 A 49.599145432182326 49.599145432182326 0 0 0 81.0168638755858,-35.55891245643397"/><text text-anchor="middle" pointer-events="none" font-size="8px" fill="#000000" x="52.27107921302558" y="-39.54706561198863" font-family="sans-serif">CONNECTION</text></g><g class="relationship" transform="translate(2.6117816644656906 86.29909960714573) rotate(435.45247761303824)"><path class="outline" fill="#A5ABB6" stroke="none" d="M 14.44320574945421,-20.411854586953456 L 15.247803529220876,-19.818034401379958 A 50.23673981998625 50.23673981998625 0 0 1 25.812282978390357,-30.388868270722448 L 25.217979088852736,-31.193108836026425 A 51.23673981998625 51.23673981998625 0 0 0 14.44320574945421,-20.411854586953456 Z M 82.08930211411432,-33.88550386259941 L 81.57363446320906,-33.02871516413879 A 50.23673981998625 50.23673981998625 0 0 1 93.08951242051633,-23.503206799879834 L 90.85481289362559,-21.501677878151668 L 98.13219649236385,-18.622496057422808 L 96.06911178970398,-26.17191202885072 L 93.83441226281325,-24.170383107122554 A 51.23673981998625 51.23673981998625 0 0 0 82.08930211411432,-33.88550386259941"/><text text-anchor="middle" pointer-events="none" font-size="8px" fill="#000000" x="53.26888768935966" y="-37.66642251701688" font-family="sans-serif">CONNECTION</text></g><g class="relationship" transform="translate(2.6117816644656906 86.29909960714573) rotate(316.79822582634887)"><path class="outline" fill="#A5ABB6" stroke="none" d="M 5.987513214418485,-24.277555179777966 L 6.953439040707552,-24.018736134675446 A 49.445063898076704 49.445063898076704 0 0 1 24.504634481636,-50.36507689700237 L 23.893672205947404,-51.15673660779066 A 50.445063898076704 50.445063898076704 0 0 0 5.987513214418485,-24.277555179777966 Z M 80.63142673101012,-54.4993055854213 L 80.1176455701615,-53.64138430770578 A 49.445063898076704 49.445063898076704 0 0 1 100.64095918306194,-29.53811209589089 L 97.85439654242943,-28.426775670756168 L 103.69850461514838,-23.22135533860418 L 104.3563760372386,-31.019893996070525 L 101.5698133966061,-29.908557570935802 A 50.445063898076704 50.445063898076704 0 0 0 80.63142673101012,-54.4993055854213"/><text text-anchor="middle" pointer-events="none" font-size="8px" fill="#000000" x="51.77640219448895" y="-58.080028722852305" font-family="sans-serif">CONNECTION</text></g><g class="relationship" transform="translate(2.6117816644656906 86.29909960714573) rotate(435.45247761303824)"><path class="outline" fill="#A5ABB6" stroke="none" d="M 10.396609043987748,-22.74116356711926 L 11.29757791189017,-22.307279828001697 A 49.24764497413588 49.24764497413588 0 0 1 25.697008131810783,-40.017140267527076 L 25.088427462927484,-40.81063227722947 A 50.24764497413588 50.24764497413588 0 0 0 10.396609043987748,-22.74116356711926 Z M 81.8179729147359,-43.84656399398368 L 81.29755449359202,-42.99265260107801 A 49.24764497413588 49.24764497413588 0 0 1 97.5048462385976,-26.920737913085727 L 94.95629756731766,-25.33805042968376 L 101.62254181174885,-21.23790559399953 L 100.90291113363752,-29.030987890955018 L 98.35436246235759,-27.448300407553052 A 50.24764497413588 50.24764497413588 0 0 0 81.8179729147359,-43.84656399398368"/><text text-anchor="middle" pointer-events="none" font-size="8px" fill="#000000" x="53.00968786528629" y="-47.61608773168537" font-family="sans-serif">CONNECTION</text></g><g class="relationship" transform="translate(2.6117816644656906 86.29909960714573) rotate(435.45247761303824)"><path class="outline" fill="#A5ABB6" stroke="none" d="M 5.987513214418485,-24.277555179777966 L 6.953439040707552,-24.018736134675446 A 50.43320354891458 50.43320354891458 0 0 1 25.35856218773795,-51.27491113760048 L 24.7575769531997,-52.07417126288323 A 51.43320354891458 51.43320354891458 0 0 0 5.987513214418485,-24.277555179777966 Z M 81.62092882567501,-55.37094246904669 L 81.11633735199993,-54.507584232452864 A 50.43320354891458 50.43320354891458 0 0 1 102.54802234037341,-29.561031115708374 L 99.75939225996571,-28.45489266386551 L 105.59378374140805,-23.23858400339754 L 106.26619578091702,-31.03588238483219 L 103.47756570050932,-29.929743932989325 A 51.43320354891458 51.43320354891458 0 0 0 81.62092882567501,-55.37094246904669"/><text text-anchor="middle" pointer-events="none" font-size="8px" fill="#000000" x="52.72016481478713" y="-58.81347934130978" font-family="sans-serif">CONNECTION</text></g></g><g class="layer nodes"><g class="node" transform="translate(164.52398589236412,89.5608184047347)"><circle class="outline" cx="0" cy="0" r="25" fill="#ECB5C9" stroke="#da7298" stroke-width="2px"/><text text-anchor="middle" pointer-events="none" font-family="sans-serif" dy="1.5625" font-size="25" fill="#2A2C34"/><text text-anchor="middle" pointer-events="none" x="0" y="5" font-size="10px" fill="#2A2C34" font-family="sans-serif"> LAX</text></g><g class="node" transform="translate(31.45049575491027,197.42980203670118)"><circle class="outline" cx="0" cy="0" r="25" fill="#ECB5C9" stroke="#da7298" stroke-width="2px"/><text text-anchor="middle" pointer-events="none" font-family="sans-serif" dy="1.5625" font-size="25" fill="#2A2C34"/><text text-anchor="middle" pointer-events="none" x="0" y="5" font-size="10px" fill="#2A2C34" font-family="sans-serif"> DAY</text></g><g class="node" transform="translate(265.9298739282511,68.84506243429448)"><circle class="outline" cx="0" cy="0" r="25" fill="#4C8EDA" stroke="#2870c2" stroke-width="2px"/><text text-anchor="middle" pointer-events="none" font-family="sans-serif" dy="1.5625" font-size="25" fill="#FFFFFF"/><text text-anchor="middle" pointer-events="none" x="0" y="5" font-size="10px" fill="#FFFFFF" font-family="sans-serif"> 11/29/20…</text></g><g class="node" transform="translate(191.56709972739222,-12.913049487072108)"><circle class="outline" cx="0" cy="0" r="25" fill="#ECB5C9" stroke="#da7298" stroke-width="2px"/><text text-anchor="middle" pointer-events="none" font-family="sans-serif" dy="1.5625" font-size="25" fill="#2A2C34"/><text text-anchor="middle" pointer-events="none" x="0" y="5" font-size="10px" fill="#2A2C34" font-family="sans-serif"> LAS</text></g><g class="node" transform="translate(84.95342201796832,8.97035417744848)"><circle class="outline" cx="0" cy="0" r="25" fill="#ECB5C9" stroke="#da7298" stroke-width="2px"/><text text-anchor="middle" pointer-events="none" font-family="sans-serif" dy="1.5625" font-size="25" fill="#2A2C34"/><text text-anchor="middle" pointer-events="none" x="0" y="5" font-size="10px" fill="#2A2C34" font-family="sans-serif"> ORD</text></g><g class="node" transform="translate(2.6117816644656906,86.29909960714573)"><circle class="outline" cx="0" cy="0" r="25" fill="#ECB5C9" stroke="#da7298" stroke-width="2px"/><text text-anchor="middle" pointer-events="none" font-family="sans-serif" dy="1.5625" font-size="25" fill="#2A2C34"/><text text-anchor="middle" pointer-events="none" x="0" y="5" font-size="10px" fill="#2A2C34" font-family="sans-serif"> MSP</text></g><g class="node" transform="translate(-67.19142956890485,166.4042701791479)"><circle class="outline" cx="0" cy="0" r="25" fill="#4C8EDA" stroke="#2870c2" stroke-width="2px"/><text text-anchor="middle" pointer-events="none" font-family="sans-serif" dy="1.5625" font-size="25" fill="#FFFFFF"/><text text-anchor="middle" pointer-events="none" x="0" y="5" font-size="10px" fill="#FFFFFF" font-family="sans-serif"> 11/23/20…</text></g></g></svg>