<svg xmlns="http://www.w3.org/2000/svg" width="386.58514404296875" height="354.2620544433594" viewBox="-74.25801086425781 -76.0151596069336 386.58514404296875 354.2620544433594"><title>Neo4j Graph Visualization</title><desc>Created using Neo4j (http://www.neo4j.com/)</desc><g class="layer relationships"><g class="relationship" transform="translate(26.63471782976367 -46.3490063156175) rotate(385.54259655493394)"><path class="outline" fill="#A5ABB6" stroke="none" d="M 24.018736134675446,-6.953439040707552 L 24.277555179777966,-5.987513214418485 A 177.16469714548919 177.16469714548919 0 0 1 57.02584738848785,-11.53887324240634 L 56.9518749450862,-12.53613352819795 A 178.16469714548919 178.16469714548919 0 0 0 24.018736134675446,-6.953439040707552 Z M 79.00981300208687,-12.80288677036117 L 78.95997899892302,-11.804129256182335 A 177.16469714548919 177.16469714548919 0 0 1 111.83294275219629,-7.046346702999445 L 111.12678982494973,-4.130639577216556 L 118.75395153356412,-5.884607727054632 L 112.77447998852503,-10.933956204043298 L 112.06832706127847,-8.018249078260409 A 178.16469714548919 178.16469714548919 0 0 0 79.00981300208687,-12.80288677036117"/><text text-anchor="middle" pointer-events="none" font-size="8px" fill="#000000" x="67.98275769447358" y="-9.511263762310733" font-family="sans-serif">road</text></g><g class="relationship" transform="translate(155.70508523562347 15.33223096774101) rotate(377.7760106853001)"><path class="outline" fill="#A5ABB6" stroke="none" d="M 21.40063509461097,-12.933012701892217 L 21.90063509461097,-12.06698729810778 A 87.2421458673891 87.2421458673891 0 0 1 40.59463007869827,-20.118292631647705 L 40.30890718981499,-21.07660491413614 A 88.2421458673891 88.2421458673891 0 0 0 21.40063509461097,-12.933012701892217 Z M 86.48000704227738,-22.230200563018116 L 86.24249809677339,-21.258815211674175 A 87.2421458673891 87.2421458673891 0 0 1 105.31524421199127,-14.15112067241526 L 103.94686190818457,-11.481377263278588 L 111.77270921727795,-11.403185865055761 L 107.13975395040019,-17.710778551264156 L 105.7713716465935,-15.041035142127484 A 88.2421458673891 88.2421458673891 0 0 0 86.48000704227738,-22.230200563018116"/><text text-anchor="middle" pointer-events="none" font-size="8px" fill="#000000" x="63.330134094867795" y="-21.22784434341294" font-family="sans-serif">twowheeler</text></g><g class="relationship" transform="translate(283.3271524999518 56.24825946081496) rotate(535.4818320143603)"><path class="outline" fill="#A5ABB6" stroke="none" d="M 21.40063509461097,12.933012701892217 L 21.90063509461097,12.06698729810778 A 43.69716307858583 43.69716307858583 0 0 0 22.762166572432974,12.551484426781819 L 22.28188253148214,13.428597441169323 A 44.69716307858583 44.69716307858583 0 0 1 21.40063509461097,12.933012701892217 Z M 62.362292169124814,14.86142975515002 L 61.94586584017647,13.952260292091225 A 43.69716307858583 43.69716307858583 0 0 0 62.83979438423983,13.530519005186248 L 61.52914332096579,10.831964986764786 L 69.35486227110225,10.922092193950386 L 64.58732913527189,17.128591029748193 L 63.27667807199784,14.430037011326734 A 44.69716307858583 44.69716307858583 0 0 1 62.362292169124814,14.86142975515002"/><text text-anchor="middle" pointer-events="none" font-size="8px" fill="#000000" x="42.170223376543774" y="21.393082418284834" transform="rotate(180 42.170223376543774 18.393082418284834)" font-family="sans-serif">twowhe…</text></g><g class="relationship" transform="translate(191.76975034655115 63.483195879566374) rotate(463.6456055368962)"><path class="outline" fill="#A5ABB6" stroke="none" d="M 25 0.5 L 50.411279257360505 0.5 L 50.411279257360505 -0.5 L 25 -0.5 Z M 69.7472167573605 0.5 L 95.15849601472101 0.5 L 95.15849601472101 3.5 L 102.15849601472101 0 L 95.15849601472101 -3.5 L 95.15849601472101 -0.5 L 69.7472167573605 -0.5 Z"/><text text-anchor="middle" pointer-events="none" font-size="8px" fill="#000000" x="60.079248007360505" y="3" transform="rotate(180 60.079248007360505 0)" font-family="sans-serif">trek</text></g><g class="relationship" transform="translate(26.63471782976367 -46.3490063156175) rotate(385.54259655493394)"><path class="outline" fill="#A5ABB6" stroke="none" d="M 24.018736134675446,6.953439040707552 L 24.277555179777966,5.987513214418485 A 177.16469714548919 177.16469714548919 0 0 0 58.35667668572478,11.632551346759868 L 58.29021606222112,12.630340395368592 A 178.16469714548919 178.16469714548919 0 0 1 24.018736134675446,6.953439040707552 Z M 77.66958507636201,12.864700900971627 L 77.6272734833456,11.865596437416173 A 177.16469714548919 177.16469714548919 0 0 0 111.83294275219629,7.046346702999445 L 111.12678982494973,4.130639577216556 L 118.75395153356412,5.884607727054632 L 112.77447998852503,10.933956204043298 L 112.06832706127847,8.018249078260409 A 178.16469714548919 178.16469714548919 0 0 1 77.66958507636201,12.864700900971627"/><text text-anchor="middle" pointer-events="none" font-size="8px" fill="#000000" x="67.98275769447359" y="15.511263762310733" font-family="sans-serif">trek</text></g><g class="relationship" transform="translate(155.70508523562347 15.33223096774101) rotate(377.7760106853001)"><path class="outline" fill="#A5ABB6" stroke="none" d="M 25 0.5 L 52.50442610504177 0.5 L 52.50442610504177 -0.5 L 25 -0.5 Z M 74.51614485504177 0.5 L 102.02057096008355 0.5 L 102.02057096008355 3.5 L 109.02057096008355 0 L 102.02057096008355 -3.5 L 102.02057096008355 -0.5 L 74.51614485504177 -0.5 Z"/><text text-anchor="middle" pointer-events="none" font-size="8px" fill="#000000" x="63.51028548004177" y="3" font-family="sans-serif">road</text></g><g class="relationship" transform="translate(155.70508523562347 15.33223096774101) rotate(377.7760106853001)"><path class="outline" fill="#A5ABB6" stroke="none" d="M 21.40063509461097,12.933012701892217 L 21.90063509461097,12.06698729810778 A 87.2421458673891 87.2421458673891 0 0 0 53.76539471359577,22.959478710604202 L 53.6306397371125,23.950357661996847 A 88.2421458673891 88.2421458673891 0 0 1 21.40063509461097,12.933012701892217 Z M 73.03138344724022,24.435089747665018 L 72.94628040101307,23.438717592532782 A 87.2421458673891 87.2421458673891 0 0 0 105.31524421199127,14.15112067241526 L 103.94686190818457,11.481377263278588 L 111.77270921727795,11.403185865055761 L 107.13975395040019,17.710778551264156 L 105.7713716465935,15.041035142127484 A 88.2421458673891 88.2421458673891 0 0 1 73.03138344724022,24.435089747665018"/><text text-anchor="middle" pointer-events="none" font-size="8px" fill="#000000" x="63.33013409486779" y="27.22784434341294" font-family="sans-serif">trek</text></g><g class="relationship" transform="translate(283.3271524999518 56.24825946081496) rotate(535.4818320143603)"><path class="outline" fill="#A5ABB6" stroke="none" d="M 25 0.5 L 31.415546837307218 0.5 L 31.415546837307218 -0.5 L 25 -0.5 Z M 53.42726558730722 0.5 L 59.842812424614436 0.5 L 59.842812424614436 3.5 L 66.84281242461444 0 L 59.842812424614436 -3.5 L 59.842812424614436 -0.5 L 53.42726558730722 -0.5 Z"/><text text-anchor="middle" pointer-events="none" font-size="8px" fill="#000000" x="42.42140621230722" y="3" transform="rotate(180 42.42140621230722 0)" font-family="sans-serif">road</text></g><g class="relationship" transform="translate(283.3271524999518 56.24825946081496) rotate(535.4818320143603)"><path class="outline" fill="#A5ABB6" stroke="none" d="M 21.40063509461097,-12.933012701892217 L 21.90063509461097,-12.06698729810778 A 43.69716307858583 43.69716307858583 0 0 1 32.748793260436514,-16.513999767279444 L 32.49705098248396,-17.481794076774626 A 44.69716307858583 44.69716307858583 0 0 0 21.40063509461097,-12.933012701892217 Z M 51.88377498113207,-18.174848984611693 L 51.701782259738856,-17.191549106975224 A 43.69716307858583 43.69716307858583 0 0 1 62.83979438423983,-13.530519005186248 L 61.52914332096579,-10.831964986764786 L 69.35486227110225,-10.922092193950386 L 64.58732913527189,-17.128591029748193 L 63.27667807199784,-14.430037011326734 A 44.69716307858583 44.69716307858583 0 0 0 51.88377498113207,-18.174848984611693"/><text text-anchor="middle" pointer-events="none" font-size="8px" fill="#000000" x="42.17022337654376" y="-15.393082418284834" transform="rotate(180 42.17022337654376 -18.393082418284834)" font-family="sans-serif">trek</text></g><g class="relationship" transform="translate(26.63471782976367 -46.3490063156175) rotate(359.5389409262832)"><path class="outline" fill="#A5ABB6" stroke="none" d="M 21.40063509461097,12.933012701892217 L 21.90063509461097,12.06698729810778 A 34.16220280021612 34.16220280021612 0 0 0 28.290803342521787,14.927915838380208 L 27.977857095620823,15.877686677346432 A 35.16220280021612 35.16220280021612 0 0 1 21.40063509461097,12.933012701892217 Z M 47.32436874824242,16.639827899986884 L 47.08710738265266,15.668382047456504 A 34.16220280021612 34.16220280021612 0 0 0 53.682531445284525,13.319011113949154 L 52.391561272499956,10.610986739431711 L 60.21641668128932,10.758084773204734 L 55.40382500899729,16.929710279972408 L 54.11285483621272,14.221685905454967 A 35.16220280021612 35.16220280021612 0 0 1 47.32436874824242,16.639827899986884"/><text text-anchor="middle" pointer-events="none" font-size="8px" fill="#000000" x="37.61730350632652" y="20.116989639235932" font-family="sans-serif">trek</text></g><g class="relationship" transform="translate(109.41532403078914 -47.01515613994053) rotate(413.30283570802334)"><path class="outline" fill="#A5ABB6" stroke="none" d="M 25 0.5 L 55.73801308907029 0.5 L 55.73801308907029 -0.5 L 25 -0.5 Z M 75.0739505890703 0.5 L 105.81196367814059 0.5 L 105.81196367814059 3.5 L 112.81196367814059 0 L 105.81196367814059 -3.5 L 105.81196367814059 -0.5 L 75.0739505890703 -0.5 Z"/><text text-anchor="middle" pointer-events="none" font-size="8px" fill="#000000" x="65.4059818390703" y="3" font-family="sans-serif">trek</text></g><g class="relationship" transform="translate(26.63471782976367 -46.3490063156175) rotate(359.5389409262832)"><path class="outline" fill="#A5ABB6" stroke="none" d="M 25 0.5 L 26.88578385946733 0.5 L 26.88578385946733 -0.5 L 25 -0.5 Z M 48.89750260946733 0.5 L 50.78328646893466 0.5 L 50.78328646893466 3.5 L 57.78328646893466 0 L 50.78328646893466 -3.5 L 50.78328646893466 -0.5 L 48.89750260946733 -0.5 Z"/><text text-anchor="middle" pointer-events="none" font-size="8px" fill="#000000" x="37.89164323446733" y="3" font-family="sans-serif">road</text></g><g class="relationship" transform="translate(26.63471782976367 -46.3490063156175) rotate(359.5389409262832)"><path class="outline" fill="#A5ABB6" stroke="none" d="M 21.40063509461097,-12.933012701892217 L 21.90063509461097,-12.06698729810778 A 34.16220280021612 34.16220280021612 0 0 1 22.665627239591107,-12.495659869092947 L 22.188020179222487,-13.374233426563261 A 35.16220280021612 35.16220280021612 0 0 0 21.40063509461097,-12.933012701892217 Z M 53.293200611654626,-14.599598529631521 L 52.88618788272379,-13.68617604332616 A 34.16220280021612 34.16220280021612 0 0 1 53.682531445284525,-13.319011113949154 L 52.391561272499956,-10.610986739431711 L 60.21641668128932,-10.758084773204734 L 55.40382500899729,-16.929710279972408 L 54.11285483621272,-14.221685905454967 A 35.16220280021612 35.16220280021612 0 0 0 53.293200611654626,-14.599598529631521"/><text text-anchor="middle" pointer-events="none" font-size="8px" fill="#000000" x="37.61730350632651" y="-14.116989639235932" font-family="sans-serif">Publi…</text></g><g class="relationship" transform="translate(109.41532403078914 -47.01515613994053) rotate(494.0525198513944)"><path class="outline" fill="#A5ABB6" stroke="none" d="M 24.018736134675446,-6.953439040707552 L 24.277555179777966,-5.987513214418485 A 176.75622398337956 176.75622398337956 0 0 1 44.80449522784468,-10.201723815096443 L 44.66180753916895,-11.191491577503541 A 177.75622398337956 177.75622398337956 0 0 0 24.018736134675446,-6.953439040707552 Z M 91.1210179342781,-11.754115565449894 L 91.00234087659506,-10.761182659368274 A 176.75622398337956 176.75622398337956 0 0 1 111.62531485600476,-7.045300130495532 L 110.91925967506528,-4.129569333342179 L 118.54636257951915,-5.883793174495645 L 112.56672176392406,-10.932941193366668 L 111.86066658298458,-8.017210396213315 A 177.75622398337956 177.75622398337956 0 0 0 91.1210179342781,-11.754115565449894"/><text text-anchor="middle" pointer-events="none" font-size="8px" fill="#000000" x="67.87900554412472" y="-9.497339289308854" transform="rotate(180 67.87900554412472 -12.497339289308854)" font-family="sans-serif">twowheeler</text></g><g class="relationship" transform="translate(10.093314266072467 55.647304247189204) rotate(426.95779660754204)"><path class="outline" fill="#A5ABB6" stroke="none" d="M 24.018736134675446,-6.953439040707552 L 24.277555179777966,-5.987513214418485 A 115.87130990426677 115.87130990426677 0 0 1 29.559719553099935,-7.270862436692283 L 29.34648698128132,-8.247863905634688 A 116.87130990426677 116.87130990426677 0 0 0 24.018736134675446,-6.953439040707552 Z M 75.69622482774378,-8.954380303066173 L 75.51286958100857,-7.971333583172012 A 115.87130990426677 115.87130990426677 0 0 1 80.83169536419157,-6.849576933425605 L 80.14392101119184,-3.929479941996075 L 87.75988406969377,-5.731452941664474 L 81.74872783485789,-10.74303958866498 L 81.06095348185815,-7.822942597235449 A 116.87130990426677 116.87130990426677 0 0 0 75.69622482774378,-8.954380303066173"/><text text-anchor="middle" pointer-events="none" font-size="8px" fill="#000000" x="52.49359669622977" y="-7.422215049127843" font-family="sans-serif">twowheeler</text></g><g class="relationship" transform="translate(53.967930967645785 158.7981093776496) rotate(374.6864356448632)"><path class="outline" fill="#A5ABB6" stroke="none" d="M 24.018736134675446,6.953439040707552 L 24.277555179777966,5.987513214418485 A 114.57597569014004 114.57597569014004 0 0 0 29.23980325003587,7.199262508851035 L 29.024293878190488,8.175764280814008 A 115.57597569014004 115.57597569014004 0 0 1 24.018736134675446,6.953439040707552 Z M 75.36921543344539,8.886090484703203 L 75.18373384433617,7.903442745123286 A 114.57597569014004 114.57597569014004 0 0 0 80.18078715887495,6.844339145378507 L 79.49350204868031,3.9241269651928365 L 87.10916309767394,5.727375918288634 L 81.09716730580112,10.737955385626067 L 80.40988219560649,7.817743205440397 A 115.57597569014004 115.57597569014004 0 0 1 75.36921543344539,8.886090484703203"/><text text-anchor="middle" pointer-events="none" font-size="8px" fill="#000000" x="52.16844343234197" y="13.378080738419158" font-family="sans-serif">twowheeler</text></g><g class="relationship" transform="translate(109.41532403078914 -47.01515613994053) rotate(494.0525198513944)"><path class="outline" fill="#A5ABB6" stroke="none" d="M 24.018736134675446,6.953439040707552 L 24.277555179777966,5.987513214418485 A 176.75622398337956 176.75622398337956 0 0 0 58.25303116954928,11.617864274939336 L 58.18642869947931,12.61564386532018 A 177.75622398337956 177.75622398337956 0 0 1 24.018736134675446,6.953439040707552 Z M 77.56587497061834,12.850330190217534 L 77.52345483750254,11.851230329189406 A 176.75622398337956 176.75622398337956 0 0 0 111.62531485600476,7.045300130495532 L 110.91925967506528,4.129569333342179 L 118.54636257951915,5.883793174495645 L 112.56672176392406,10.932941193366668 L 111.86066658298458,8.017210396213315 A 177.75622398337956 177.75622398337956 0 0 1 77.56587497061834,12.850330190217534"/><text text-anchor="middle" pointer-events="none" font-size="8px" fill="#000000" x="67.87900554412471" y="15.497339289308854" transform="rotate(180 67.87900554412471 12.497339289308854)" font-family="sans-serif">trek</text></g><g class="relationship" transform="translate(10.093314266072467 55.647304247189204) rotate(426.95779660754204)"><path class="outline" fill="#A5ABB6" stroke="none" d="M 24.018736134675446,6.953439040707552 L 24.277555179777966,5.987513214418485 A 115.87130990426677 115.87130990426677 0 0 0 42.89306586741372,9.37612279423017 L 42.79490359492399,10.371293215946807 A 116.87130990426677 116.87130990426677 0 0 1 24.018736134675446,6.953439040707552 Z M 62.18933584511162,10.66692561950046 L 62.121551211846004,9.669225642807547 A 115.87130990426677 115.87130990426677 0 0 0 80.83169536419157,6.849576933425605 L 80.14392101119184,3.929479941996075 L 87.75988406969377,5.731452941664474 L 81.74872783485789,10.74303958866498 L 81.06095348185815,7.822942597235449 A 116.87130990426677 116.87130990426677 0 0 1 62.18933584511162,10.66692561950046"/><text text-anchor="middle" pointer-events="none" font-size="8px" fill="#000000" x="52.4935966962298" y="13.422215049127843" font-family="sans-serif">trek</text></g><g class="relationship" transform="translate(53.967930967645785 158.7981093776496) rotate(374.6864356448632)"><path class="outline" fill="#A5ABB6" stroke="none" d="M 24.018736134675446,-6.953439040707552 L 24.277555179777966,-5.987513214418485 A 114.57597569014004 114.57597569014004 0 0 1 42.56878630091614,-9.32672212241549 L 42.46961006933506,-10.321792006940882 A 115.57597569014004 115.57597569014004 0 0 0 24.018736134675446,-6.953439040707552 Z M 61.86444611984958,-10.619055651035964 L 61.79581207827742,-9.621413747175936 A 114.57597569014004 114.57597569014004 0 0 1 80.18078715887495,-6.844339145378507 L 79.49350204868031,-3.9241269651928365 L 87.10916309767394,-5.727375918288634 L 81.09716730580112,-10.737955385626067 L 80.40988219560649,-7.817743205440397 A 115.57597569014004 115.57597569014004 0 0 0 61.86444611984958,-10.619055651035964"/><text text-anchor="middle" pointer-events="none" font-size="8px" fill="#000000" x="52.168443432341924" y="-7.378080738419158" font-family="sans-serif">trek</text></g><g class="relationship" transform="translate(109.41532403078914 -47.01515613994053) rotate(413.40799373243755)"><path class="outline" fill="#A5ABB6" stroke="none" d="M 25 0.5 L 25.658371122423205 0.5 L 25.658371122423205 -0.5 L 25 -0.5 Z M 44.994308622423205 0.5 L 45.65267974484641 0.5 L 45.65267974484641 3.5 L 52.65267974484641 0 L 45.65267974484641 -3.5 L 45.65267974484641 -0.5 L 44.994308622423205 -0.5 Z"/><text text-anchor="middle" pointer-events="none" font-size="8px" fill="#000000" x="35.326339872423205" y="3" font-family="sans-serif">trek</text></g><g class="relationship" transform="translate(10.093314266072467 55.647304247189204) rotate(475.8826613421979)"><path class="outline" fill="#A5ABB6" stroke="none" d="M 24.018736134675446,-6.953439040707552 L 24.277555179777966,-5.987513214418485 A 145.07576956077682 145.07576956077682 0 0 1 36.83081804119017,-8.761425571910081 L 36.658528007096294,-9.746471836890521 A 146.07576956077682 146.07576956077682 0 0 0 24.018736134675446,-6.953439040707552 Z M 83.0810302415043,-10.37618999429742 L 82.9355228587234,-9.386832828478987 A 145.07576956077682 145.07576956077682 0 0 1 95.5594088114236,-6.954446821288944 L 94.86183922578138,-4.036674267921058 L 102.48380636688903,-5.813079880351765 L 96.48950159227988,-10.844810225779458 L 95.79193200663767,-7.927037672411573 A 146.07576956077682 146.07576956077682 0 0 0 83.0810302415043,-10.37618999429742"/><text text-anchor="middle" pointer-events="none" font-size="8px" fill="#000000" x="59.85138334341504" y="-8.417458524754863" transform="rotate(180 59.85138334341504 -11.417458524754863)" font-family="sans-serif">twowheeler</text></g><g class="relationship" transform="translate(-45.25801141824703 169.72670658508721) rotate(353.7148606051976)"><path class="outline" fill="#A5ABB6" stroke="none" d="M 21.40063509461097,12.933012701892217 L 21.90063509461097,12.06698729810778 A 52.02773136894582 52.02773136894582 0 0 0 24.10493247265751,13.269668481009028 L 23.647300212323405,14.158810041336459 A 53.02773136894582 53.02773136894582 0 0 1 21.40063509461097,12.933012701892217 Z M 69.01522149397717,15.65838998323904 L 68.61730289232923,14.740969258346396 A 52.02773136894582 52.02773136894582 0 0 0 70.89620839226916,13.68647474394097 L 69.57104734785146,10.995016364853939 L 77.39713811754184,11.04300870348084 L 72.66308978482608,17.275085916057012 L 71.33792874040839,14.583627536969981 A 53.02773136894582 53.02773136894582 0 0 1 69.01522149397717,15.65838998323904"/><text text-anchor="middle" pointer-events="none" font-size="8px" fill="#000000" x="46.17920994989874" y="22.50871049440603" font-family="sans-serif">twowheeler</text></g><g class="relationship" transform="translate(10.093314266072467 55.647304247189204) rotate(475.8826613421979)"><path class="outline" fill="#A5ABB6" stroke="none" d="M 24.018736134675446,6.953439040707552 L 24.277555179777966,5.987513214418485 A 145.07576956077682 145.07576956077682 0 0 0 50.23570678658585,10.467133034446732 L 50.15581597798621,11.463936655377807 A 146.07576956077682 146.07576956077682 0 0 1 24.018736134675446,6.953439040707552 Z M 69.54212253904892,11.726910615396463 L 69.48929930055264,10.728306737237176 A 145.07576956077682 145.07576956077682 0 0 0 95.5594088114236,6.954446821288944 L 94.86183922578138,4.036674267921058 L 102.48380636688903,5.813079880351765 L 96.48950159227988,10.844810225779458 L 95.79193200663767,7.927037672411573 A 146.07576956077682 146.07576956077682 0 0 1 69.54212253904892,11.726910615396463"/><text text-anchor="middle" pointer-events="none" font-size="8px" fill="#000000" x="59.85138334341511" y="14.417458524754863" transform="rotate(180 59.85138334341511 11.417458524754863)" font-family="sans-serif">trek</text></g><g class="relationship" transform="translate(-45.25801141824703 169.72670658508721) rotate(353.7148606051976)"><path class="outline" fill="#A5ABB6" stroke="none" d="M 25 0.5 L 35.40711959663355 0.5 L 35.40711959663355 -0.5 L 25 -0.5 Z M 57.41883834663355 0.5 L 67.8259579432671 0.5 L 67.8259579432671 3.5 L 74.8259579432671 0 L 67.8259579432671 -3.5 L 67.8259579432671 -0.5 L 57.41883834663355 -0.5 Z"/><text text-anchor="middle" pointer-events="none" font-size="8px" fill="#000000" x="46.41297897163355" y="3" font-family="sans-serif">road</text></g><g class="relationship" transform="translate(-45.25801141824703 169.72670658508721) rotate(353.7148606051976)"><path class="outline" fill="#A5ABB6" stroke="none" d="M 21.40063509461097,-12.933012701892217 L 21.90063509461097,-12.06698729810778 A 52.02773136894582 52.02773136894582 0 0 1 36.7079886429504,-17.816135222339717 L 36.49259366336414,-18.79266223311261 A 53.02773136894582 53.02773136894582 0 0 0 21.40063509461097,-12.933012701892217 Z M 55.89196760336672,-19.433884295399594 L 55.74152807638076,-18.4452650821935 A 52.02773136894582 52.02773136894582 0 0 1 70.89620839226916,-13.68647474394097 L 69.57104734785146,-10.995016364853939 L 77.39713811754184,-11.04300870348084 L 72.66308978482608,-17.275085916057012 L 71.33792874040839,-14.583627536969981 A 53.02773136894582 53.02773136894582 0 0 0 55.89196760336672,-19.433884295399594"/><text text-anchor="middle" pointer-events="none" font-size="8px" fill="#000000" x="46.17920994989874" y="-16.50871049440603" font-family="sans-serif">trek</text></g><g class="relationship" transform="translate(-45.25801141824703 169.72670658508721) rotate(398.8387777272358)"><path class="outline" fill="#A5ABB6" stroke="none" d="M 25 0.5 L 50.231969690784624 0.5 L 50.231969690784624 -0.5 L 25 -0.5 Z M 69.56790719078462 0.5 L 94.79987688156925 0.5 L 94.79987688156925 3.5 L 101.79987688156925 0 L 94.79987688156925 -3.5 L 94.79987688156925 -0.5 L 69.56790719078462 -0.5 Z"/><text text-anchor="middle" pointer-events="none" font-size="8px" fill="#000000" x="59.899938440784624" y="3" font-family="sans-serif">trek</text></g><g class="relationship" transform="translate(53.50815004979059 249.24685576786126) rotate(330.1236852202821)"><path class="outline" fill="#A5ABB6" stroke="none" d="M 25 0.5 L 49.259994541535136 0.5 L 49.259994541535136 -0.5 L 25 -0.5 Z M 68.59593204153514 0.5 L 92.85592658307027 0.5 L 92.85592658307027 3.5 L 99.85592658307027 0 L 92.85592658307027 -3.5 L 92.85592658307027 -0.5 L 68.59593204153514 -0.5 Z"/><text text-anchor="middle" pointer-events="none" font-size="8px" fill="#000000" x="58.927963291535136" y="3" font-family="sans-serif">trek</text></g></g><g class="layer nodes"><g class="node" transform="translate(26.63471782976367,-46.3490063156175)"><circle class="outline" cx="0" cy="0" r="25" fill="#D9C8AE" stroke="#c0a378" stroke-width="2px"/><text text-anchor="middle" pointer-events="none" font-family="sans-serif" dy="1.5625" font-size="25" fill="#2A2C34"/><text text-anchor="middle" pointer-events="none" x="0" y="5" font-size="10px" fill="#2A2C34" font-family="sans-serif"> Darjeeling</text></g><g class="node" transform="translate(161.7710663763999,187.052456089316)"><circle class="outline" cx="0" cy="0" r="25" fill="#8DCC93" stroke="#5db665" stroke-width="2px"/><text text-anchor="middle" pointer-events="none" font-family="sans-serif" dy="1.5625" font-size="25" fill="#2A2C34"/><text text-anchor="middle" pointer-events="none" x="0" y="5" font-size="10px" fill="#2A2C34" font-family="sans-serif"> Sandak…</text></g><g class="node" transform="translate(155.70508523562347,15.33223096774101)"><circle class="outline" cx="0" cy="0" r="25" fill="#F16667" stroke="#eb2728" stroke-width="2px"/><text text-anchor="middle" pointer-events="none" font-family="sans-serif" dy="1.5625" font-size="25" fill="#FFFFFF"/><text text-anchor="middle" pointer-events="none" x="0" y="5" font-size="10px" fill="#FFFFFF" font-family="sans-serif"> Tumbling</text></g><g class="node" transform="translate(283.3271524999518,56.24825946081496)"><circle class="outline" cx="0" cy="0" r="25" fill="#F16667" stroke="#eb2728" stroke-width="2px"/><text text-anchor="middle" pointer-events="none" font-family="sans-serif" dy="1.5625" font-size="25" fill="#FFFFFF"/><text text-anchor="middle" pointer-events="none" x="0" y="5" font-size="10px" fill="#FFFFFF" font-family="sans-serif"> Gairibus</text></g><g class="node" transform="translate(191.76975034655115,63.483195879566374)"><circle class="outline" cx="0" cy="0" r="25" fill="#F16667" stroke="#eb2728" stroke-width="2px"/><text text-anchor="middle" pointer-events="none" font-family="sans-serif" dy="1.5625" font-size="25" fill="#FFFFFF"/><text text-anchor="middle" pointer-events="none" x="0" y="5" font-size="10px" fill="#FFFFFF" font-family="sans-serif"> BhikeBh…</text></g><g class="node" transform="translate(109.41532403078914,-47.01515613994053)"><circle class="outline" cx="0" cy="0" r="25" fill="#D9C8AE" stroke="#c0a378" stroke-width="2px"/><text text-anchor="middle" pointer-events="none" font-family="sans-serif" dy="1.5625" font-size="25" fill="#2A2C34"/><text text-anchor="middle" pointer-events="none" x="0" y="5" font-size="10px" fill="#2A2C34" font-family="sans-serif"> Rimbik</text></g><g class="node" transform="translate(10.093314266072467,55.647304247189204)"><circle class="outline" cx="0" cy="0" r="25" fill="#F16667" stroke="#eb2728" stroke-width="2px"/><text text-anchor="middle" pointer-events="none" font-family="sans-serif" dy="1.5625" font-size="25" fill="#FFFFFF"/><text text-anchor="middle" pointer-events="none" x="0" y="5" font-size="10px" fill="#FFFFFF" font-family="sans-serif"> Sirikhola</text></g><g class="node" transform="translate(53.967930967645785,158.7981093776496)"><circle class="outline" cx="0" cy="0" r="25" fill="#F16667" stroke="#eb2728" stroke-width="2px"/><text text-anchor="middle" pointer-events="none" font-family="sans-serif" dy="1.5625" font-size="25" fill="#FFFFFF"/><text text-anchor="middle" pointer-events="none" x="0" y="5" font-size="10px" fill="#FFFFFF" font-family="sans-serif"> Gurdum</text></g><g class="node" transform="translate(-45.25801141824703,169.72670658508721)"><circle class="outline" cx="0" cy="0" r="25" fill="#F16667" stroke="#eb2728" stroke-width="2px"/><text text-anchor="middle" pointer-events="none" font-family="sans-serif" dy="1.5625" font-size="25" fill="#FFFFFF"/><text text-anchor="middle" pointer-events="none" x="0" y="5" font-size="10px" fill="#FFFFFF" font-family="sans-serif"> Rammam</text></g><g class="node" transform="translate(53.50815004979059,249.24685576786126)"><circle class="outline" cx="0" cy="0" r="25" fill="#8DCC93" stroke="#5db665" stroke-width="2px"/><text text-anchor="middle" pointer-events="none" font-family="sans-serif" dy="1.5625" font-size="25" fill="#2A2C34"/><text text-anchor="middle" pointer-events="none" x="0" y="5" font-size="10px" fill="#2A2C34" font-family="sans-serif"> Sabargr…</text></g></g></svg>