<svg xmlns="http://www.w3.org/2000/svg" width="197.3563232421875" height="215.7499542236328" viewBox="-25.200698852539062 -21.89042091369629 197.3563232421875 215.7499542236328"><title>Neo4j Graph Visualization</title><desc>Created using Neo4j (http://www.neo4j.com/)</desc><g class="layer relationships"><g class="relationship" transform="translate(38.771513319957066 63.22570421537519) rotate(432.9379703670704)"><path class="outline" fill="#A5ABB6" stroke="none" d="M 5.987513214418485,24.277555179777966 L 6.953439040707552,24.018736134675446 A 45.89014289327892 45.89014289327892 0 0 0 21.480706202175725,47.04009593821325 L 20.831346554276045,47.800577396027705 A 46.89014289327892 46.89014289327892 0 0 1 5.987513214418485,24.277555179777966 Z M 77.04882017377454,51.3160887105119 L 76.49926102657803,50.48063389800997 A 45.89014289327892 45.89014289327892 0 0 0 93.78137882991876,29.44844659815762 L 91.00290858008725,28.31703019788703 L 96.88442880552205,23.153918748595874 L 97.48600582969411,30.957001798518405 L 94.7075355798626,29.825585398247814 A 46.89014289327892 46.89014289327892 0 0 1 77.04882017377454,51.3160887105119"/><text text-anchor="middle" pointer-events="none" font-size="8px" fill="#000000" x="48.3846011475936" y="61.44119647051666" font-family="sans-serif">CONNECTION</text></g><g class="relationship" transform="translate(38.771513319957066 63.22570421537519) rotate(349.06073204226936)"><path class="outline" fill="#A5ABB6" stroke="none" d="M 5.987513214418485,24.277555179777966 L 6.953439040707552,24.018736134675446 A 45.89179665619858 45.89179665619858 0 0 0 21.482093340337528,47.041662971798246 L 20.83275251089381,47.80216049790687 A 46.89179665619858 46.89179665619858 0 0 1 5.987513214418485,24.277555179777966 Z M 77.05049629242824,51.31758837602955 L 76.50095484841778,50.48212191870472 A 45.89179665619858 45.89179665619858 0 0 0 93.7845694220147,29.448491153261184 L 91.00609514949755,28.3170846317313 L 96.88759701767061,23.15395227097617 L 97.48920178537088,30.95703318196769 L 94.71072751285374,29.82562666043781 A 46.89179665619858 46.89179665619858 0 0 1 77.05049629242824,51.31758837602955"/><text text-anchor="middle" pointer-events="none" font-size="8px" fill="#000000" x="48.38617765614107" y="61.44242413120435" font-family="sans-serif">CONNECTION</text></g><g class="relationship" transform="translate(69.96444597846052 164.85952439878997) rotate(252.93797036707042)"><path class="outline" fill="#A5ABB6" stroke="none" d="M 17.324116139070416,-18.03122292025696 L 18.031222920256962,-17.324116139070412 A 47.02074877202012 47.02074877202012 0 0 1 21.95487723755812,-20.83128357569536 L 21.331215625148552,-21.612978012931997 A 48.02074877202012 48.02074877202012 0 0 0 17.324116139070416,-18.03122292025696 Z M 77.77702874203263,-24.124086007599757 L 77.22524402009071,-23.290099424595276 A 47.02074877202012 47.02074877202012 0 0 1 81.44482916945977,-20.145200730293254 L 79.52025863046477,-17.843890616372814 L 87.13531452510662,-16.038087824958332 L 84.0109232214531,-23.213614215520504 L 82.0863526824581,-20.912304101600064 A 48.02074877202012 48.02074877202012 0 0 0 77.77702874203263,-24.124086007599757"/><text text-anchor="middle" pointer-events="none" font-size="8px" fill="#000000" x="49.16794393163524" y="-28.549220171015598" transform="rotate(180 49.16794393163524 -31.549220171015598)" font-family="sans-serif">CONNECTION</text></g><g class="relationship" transform="translate(69.96444597846052 164.85952439878997) rotate(252.93797036707042)"><path class="outline" fill="#A5ABB6" stroke="none" d="M 24.018736134675446,-6.953439040707552 L 24.277555179777966,-5.987513214418485 A 104.32910005887527 104.32910005887527 0 0 1 25.655414987752188,-6.346650130279102 L 25.409802802549702,-7.316018303100989 A 105.32910005887527 105.32910005887527 0 0 0 24.018736134675446,-6.953439040707552 Z M 73.86570544199475,-8.092402604053817 L 73.65127474624258,-7.115663397960773 A 104.32910005887527 104.32910005887527 0 0 1 75.03993286961605,-6.80085299286986 L 74.35670969536879,-3.8796877982648867 L 81.9698555194022,-5.693526452060433 L 75.95089710194573,-10.695739919009824 L 75.26767392769847,-7.77457472440485 A 105.32910005887527 105.32910005887527 0 0 0 73.86570544199475,-8.092402604053817"/><text text-anchor="middle" pointer-events="none" font-size="8px" fill="#000000" x="49.6005053962711" y="-7.028987807187576" transform="rotate(180 49.6005053962711 -10.028987807187576)" font-family="sans-serif">CONNEC…</text></g><g class="relationship" transform="translate(69.96444597846052 164.85952439878997) rotate(252.93797036707042)"><path class="outline" fill="#A5ABB6" stroke="none" d="M 24.018736134675446,6.953439040707552 L 24.277555179777966,5.987513214418485 A 104.32910005887527 104.32910005887527 0 0 0 25.65541498775222,6.346650130279102 L 25.409802802549734,7.316018303100989 A 105.32910005887527 105.32910005887527 0 0 1 24.018736134675446,6.953439040707552 Z M 73.86570544199476,8.092402604053802 L 73.6512747462426,7.115663397960773 A 104.32910005887527 104.32910005887527 0 0 0 75.03993286961605,6.80085299286986 L 74.35670969536879,3.8796877982648867 L 81.9698555194022,5.693526452060433 L 75.95089710194573,10.695739919009824 L 75.26767392769847,7.77457472440485 A 105.32910005887527 105.32910005887527 0 0 1 73.86570544199476,8.092402604053802"/><text text-anchor="middle" pointer-events="none" font-size="8px" fill="#000000" x="49.60050539627113" y="13.028987807187576" transform="rotate(180 49.60050539627113 10.028987807187576)" font-family="sans-serif">CONNEC…</text></g><g class="relationship" transform="translate(38.771513319957066 63.22570421537519) rotate(349.06073204226936)"><path class="outline" fill="#A5ABB6" stroke="none" d="M 10.396609043987748,22.74116356711926 L 11.29757791189017,22.307279828001697 A 44.378817246964424 44.378817246964424 0 0 0 21.899014536636916,36.31084116024575 L 21.236930733330755,37.06027096843305 A 45.378817246964424 45.378817246964424 0 0 1 10.396609043987748,22.74116356711926 Z M 77.21713775955179,40.28884644945207 L 76.6456017723385,39.4682694479951 A 44.378817246964424 44.378817246964424 0 0 0 88.78666081400637,26.77634785033394 L 86.2513194623279,25.172588444915174 L 92.95132298526323,21.127844597320625 L 92.16711594957766,28.914693724225632 L 89.6317745978992,27.310934318806865 A 45.378817246964424 45.378817246964424 0 0 1 77.21713775955179,40.28884644945207"/><text text-anchor="middle" pointer-events="none" font-size="8px" fill="#000000" x="48.69748533823969" y="50.85639685580159" font-family="sans-serif">CONNECTION</text></g><g class="relationship" transform="translate(38.771513319957066 63.22570421537519) rotate(349.06073204226936)"><path class="outline" fill="#A5ABB6" stroke="none" d="M 14.44320574945421,20.411854586953456 L 15.247803529220876,19.818034401379958 A 44.78474589746556 44.78474589746556 0 0 0 22.05688597940243,27.159103772893097 L 21.40432841586856,27.916842927401255 A 45.78474589746556 45.78474589746556 0 0 1 14.44320574945421,20.411854586953456 Z M 77.47548494662246,30.775495083647513 L 76.90337356350923,29.95531914806279 A 44.78474589746556 44.78474589746556 0 0 0 84.42374386106493,23.344802230424605 L 82.20364195686695,21.327093744300697 L 89.5017473127204,18.500849201649938 L 87.38387973332892,26.03508021192315 L 85.16377782913094,24.017371725799244 A 45.78474589746556 45.78474589746556 0 0 1 77.47548494662246,30.775495083647513"/><text text-anchor="middle" pointer-events="none" font-size="8px" fill="#000000" x="48.97577213958563" y="41.44995607520205" font-family="sans-serif">CONNECTION</text></g><g class="relationship" transform="translate(38.771513319957066 63.22570421537519) rotate(349.06073204226936)"><path class="outline" fill="#A5ABB6" stroke="none" d="M 17.9862104268602,17.370844380187897 L 18.666383164631117,16.637792508358068 A 47.95124189774517 47.95124189774517 0 0 0 21.897819512331694,19.380583838647574 L 21.285036819527523,20.17083529951283 A 48.95124189774517 48.95124189774517 0 0 1 17.9862104268602,17.370844380187897 Z M 77.86944333234457,22.588211757268333 L 77.32629199121725,21.74857694341675 A 47.95124189774517 47.95124189774517 0 0 0 80.77988014085382,19.29138056472795 L 78.93435737683309,16.92620705576898 L 86.60620545576154,15.379356366839412 L 83.24057715954812,22.444945243339912 L 81.3950543955274,20.07977173438094 A 48.95124189774517 48.95124189774517 0 0 1 77.86944333234457,22.588211757268333"/><text text-anchor="middle" pointer-events="none" font-size="8px" fill="#000000" x="49.21348235970382" y="32.89413217423204" font-family="sans-serif">CONNECTION</text></g><g class="relationship" transform="translate(38.771513319957066 63.22570421537519) rotate(432.9379703670704)"><path class="outline" fill="#A5ABB6" stroke="none" d="M 17.324116139070416,-18.03122292025696 L 18.031222920256962,-17.324116139070412 A 47.02074877202012 47.02074877202012 0 0 1 21.95487723755812,-20.83128357569536 L 21.331215625148552,-21.612978012931997 A 48.02074877202012 48.02074877202012 0 0 0 17.324116139070416,-18.03122292025696 Z M 77.77702874203263,-24.124086007599757 L 77.22524402009071,-23.290099424595276 A 47.02074877202012 47.02074877202012 0 0 1 81.44482916945977,-20.145200730293254 L 79.52025863046477,-17.843890616372814 L 87.13531452510662,-16.038087824958332 L 84.0109232214531,-23.213614215520504 L 82.0863526824581,-20.912304101600064 A 48.02074877202012 48.02074877202012 0 0 0 77.77702874203263,-24.124086007599757"/><text text-anchor="middle" pointer-events="none" font-size="8px" fill="#000000" x="49.16794393163524" y="-28.549220171015598" font-family="sans-serif">CONNECTION</text></g><g class="relationship" transform="translate(38.771513319957066 63.22570421537519) rotate(349.06073204226936)"><path class="outline" fill="#A5ABB6" stroke="none" d="M 20.90208894244944,13.724164012497553 L 21.434121018964774,12.87743981326927 A 56.100733290863744 56.100733290863744 0 0 0 23.119697183441215,13.895737036685375 L 22.61771063513203,14.760612464314484 A 57.100733290863744 57.100733290863744 0 0 1 20.90208894244944,13.724164012497553 Z M 76.60868132473534,16.552032872202126 L 76.16512886543529,15.655784460293425 A 56.100733290863744 56.100733290863744 0 0 0 77.91449766017232,14.751458710649873 L 76.49029237164143,12.111072508572484 L 84.31276634644138,11.86837740442404 L 79.81343804488017,18.271973646753057 L 78.38923275634929,15.631587444675668 A 57.100733290863744 57.100733290863744 0 0 1 76.60868132473534,16.552032872202126"/><text text-anchor="middle" pointer-events="none" font-size="8px" fill="#000000" x="49.40453122547073" y="24.945194109355427" font-family="sans-serif">CONNECTI…</text></g><g class="relationship" transform="translate(38.771513319957066 63.22570421537519) rotate(349.06073204226936)"><path class="outline" fill="#A5ABB6" stroke="none" d="M 23.08917320392191,9.598962483481976 L 23.454514228288303,8.668088734837774 A 76.16718233521043 76.16718233521043 0 0 0 23.601357386081105,8.725545085832778 L 23.23794426758297,9.657173179711151 A 77.16718233521043 77.16718233521043 0 0 1 23.08917320392191,9.598962483481976 Z M 76.03906705700219,10.853932904036029 L 75.71823693645015,9.906796148468715 A 76.16718233521043 76.16718233521043 0 0 0 75.86753250632731,9.856051906674548 L 74.89916183380898,7.01664030554899 L 82.65422135437332,8.06975560431938 L 77.1586934030184,13.641934041508627 L 76.19032273050007,10.802522440383068 A 77.16718233521043 77.16718233521043 0 0 1 76.03906705700219,10.853932904036029"/><text text-anchor="middle" pointer-events="none" font-size="8px" fill="#000000" x="49.54426278629979" y="17.41355532602509" font-family="sans-serif">CONNECT…</text></g><g class="relationship" transform="translate(38.771513319957066 63.22570421537519) rotate(349.06073204226936)"><path class="outline" fill="#A5ABB6" stroke="none" d="M 24.471206027250748,5.139073415689509 L 24.657117634413662,4.15650694245622 A 143.20995562149815 143.20995562149815 0 0 0 25.526678365620473,4.318256947779247 L 25.34683868779678,5.301952881632928 A 144.20995562149815 144.20995562149815 0 0 1 24.471206027250748,5.139073415689509 Z M 73.94788258051922,5.860714964357385 L 73.79070638670446,4.873144387589377 A 143.20995562149815 143.20995562149815 0 0 0 74.663756033515,4.7314290260972065 L 74.17393857732688,1.7716859866403367 L 81.65145936827905,4.081812134901056 L 75.31684597509917,8.677753078706367 L 74.82702851891105,5.7180100392494975 A 144.20995562149815 144.20995562149815 0 0 1 73.94788258051922,5.860714964357385"/><text text-anchor="middle" pointer-events="none" font-size="8px" fill="#000000" x="49.629398648988534" y="10.143664755046245" font-family="sans-serif">CONNEC…</text></g><g class="relationship" transform="translate(38.771513319957066 63.22570421537519) rotate(349.06073204226936)"><path class="outline" fill="#A5ABB6" stroke="none" d="M 25 0.5 L 25.324007973543146 0.5 L 25.324007973543146 -0.5 L 25 -0.5 Z M 73.99197672354315 0.5 L 74.3159846970863 0.5 L 74.3159846970863 3.5 L 81.3159846970863 0 L 74.3159846970863 -3.5 L 74.3159846970863 -0.5 L 73.99197672354315 -0.5 Z"/><text text-anchor="middle" pointer-events="none" font-size="8px" fill="#000000" x="49.65799234854315" y="3" font-family="sans-serif">CONNEC…</text></g><g class="relationship" transform="translate(38.771513319957066 63.22570421537519) rotate(432.9379703670704)"><path class="outline" fill="#A5ABB6" stroke="none" d="M 5.987513214418485,-24.277555179777966 L 6.953439040707552,-24.018736134675446 A 45.89014289327892 45.89014289327892 0 0 1 21.480706202175725,-47.04009593821325 L 20.831346554276045,-47.800577396027705 A 46.89014289327892 46.89014289327892 0 0 0 5.987513214418485,-24.277555179777966 Z M 77.04882017377454,-51.316088710511906 L 76.49926102657803,-50.48063389800997 A 45.89014289327892 45.89014289327892 0 0 1 93.78137882991876,-29.44844659815762 L 91.00290858008725,-28.31703019788703 L 96.88442880552205,-23.153918748595874 L 97.48600582969411,-30.957001798518405 L 94.7075355798626,-29.825585398247814 A 46.89014289327892 46.89014289327892 0 0 0 77.04882017377454,-51.316088710511906"/><text text-anchor="middle" pointer-events="none" font-size="8px" fill="#000000" x="48.3846011475936" y="-55.44119647051666" font-family="sans-serif">CONNECTION</text></g><g class="relationship" transform="translate(38.771513319957066 63.22570421537519) rotate(349.06073204226936)"><path class="outline" fill="#A5ABB6" stroke="none" d="M 24.471206027250748,-5.139073415689509 L 24.657117634413662,-4.15650694245622 A 143.20995562149815 143.20995562149815 0 0 1 25.526678365620477,-4.318256947779247 L 25.346838687796783,-5.301952881632928 A 144.20995562149815 144.20995562149815 0 0 0 24.471206027250748,-5.139073415689509 Z M 73.94788258051919,-5.860714964357385 L 73.79070638670443,-4.873144387589377 A 143.20995562149815 143.20995562149815 0 0 1 74.663756033515,-4.7314290260972065 L 74.17393857732688,-1.7716859866403367 L 81.65145936827905,-4.081812134901056 L 75.31684597509917,-8.677753078706367 L 74.82702851891105,-5.7180100392494975 A 144.20995562149815 144.20995562149815 0 0 0 73.94788258051919,-5.860714964357385"/><text text-anchor="middle" pointer-events="none" font-size="8px" fill="#000000" x="49.62939864898853" y="-4.143664755046245" font-family="sans-serif">CONNEC…</text></g><g class="relationship" transform="translate(38.771513319957066 63.22570421537519) rotate(349.06073204226936)"><path class="outline" fill="#A5ABB6" stroke="none" d="M 23.08917320392191,-9.598962483481976 L 23.454514228288303,-8.668088734837774 A 76.16718233521043 76.16718233521043 0 0 1 23.601357386081073,-8.725545085832763 L 23.237944267582936,-9.657173179711137 A 77.16718233521043 77.16718233521043 0 0 0 23.08917320392191,-9.598962483481976 Z M 76.03906705700217,-10.853932904036029 L 75.71823693645015,-9.906796148468715 A 76.16718233521043 76.16718233521043 0 0 1 75.86753250632731,-9.856051906674548 L 74.89916183380898,-7.01664030554899 L 82.65422135437332,-8.06975560431938 L 77.1586934030184,-13.641934041508627 L 76.19032273050007,-10.802522440383068 A 77.16718233521043 77.16718233521043 0 0 0 76.03906705700217,-10.853932904036029"/><text text-anchor="middle" pointer-events="none" font-size="8px" fill="#000000" x="49.54426278629976" y="-11.41355532602509" font-family="sans-serif">CONNECT…</text></g><g class="relationship" transform="translate(38.771513319957066 63.22570421537519) rotate(349.06073204226936)"><path class="outline" fill="#A5ABB6" stroke="none" d="M 20.90208894244944,-13.724164012497553 L 21.434121018964774,-12.87743981326927 A 56.100733290863744 56.100733290863744 0 0 1 23.119697183441215,-13.895737036685375 L 22.61771063513203,-14.760612464314484 A 57.100733290863744 57.100733290863744 0 0 0 20.90208894244944,-13.724164012497553 Z M 76.60868132473536,-16.552032872202126 L 76.16512886543529,-15.655784460293425 A 56.100733290863744 56.100733290863744 0 0 1 77.91449766017232,-14.751458710649873 L 76.49029237164143,-12.111072508572484 L 84.31276634644138,-11.86837740442404 L 79.81343804488017,-18.271973646753057 L 78.38923275634929,-15.631587444675668 A 57.100733290863744 57.100733290863744 0 0 0 76.60868132473536,-16.552032872202126"/><text text-anchor="middle" pointer-events="none" font-size="8px" fill="#000000" x="49.40453122547073" y="-18.945194109355427" font-family="sans-serif">CONNECTI…</text></g><g class="relationship" transform="translate(38.771513319957066 63.22570421537519) rotate(349.06073204226936)"><path class="outline" fill="#A5ABB6" stroke="none" d="M 17.9862104268602,-17.370844380187897 L 18.666383164631117,-16.637792508358068 A 47.95124189774517 47.95124189774517 0 0 1 21.897819512331683,-19.380583838647567 L 21.285036819527512,-20.170835299512824 A 48.95124189774517 48.95124189774517 0 0 0 17.9862104268602,-17.370844380187897 Z M 77.86944333234457,-22.58821175726834 L 77.32629199121725,-21.74857694341675 A 47.95124189774517 47.95124189774517 0 0 1 80.77988014085382,-19.29138056472795 L 78.93435737683309,-16.92620705576898 L 86.60620545576154,-15.379356366839412 L 83.24057715954812,-22.444945243339912 L 81.3950543955274,-20.07977173438094 A 48.95124189774517 48.95124189774517 0 0 0 77.86944333234457,-22.58821175726834"/><text text-anchor="middle" pointer-events="none" font-size="8px" fill="#000000" x="49.21348235970381" y="-26.89413217423204" font-family="sans-serif">CONNECTION</text></g><g class="relationship" transform="translate(38.771513319957066 63.22570421537519) rotate(349.06073204226936)"><path class="outline" fill="#A5ABB6" stroke="none" d="M 14.44320574945421,-20.411854586953456 L 15.247803529220876,-19.818034401379958 A 44.78474589746556 44.78474589746556 0 0 1 22.056885979402423,-27.15910377289309 L 21.404328415868555,-27.916842927401248 A 45.78474589746556 45.78474589746556 0 0 0 14.44320574945421,-20.411854586953456 Z M 77.47548494662246,-30.77549508364752 L 76.90337356350923,-29.95531914806279 A 44.78474589746556 44.78474589746556 0 0 1 84.42374386106493,-23.344802230424605 L 82.20364195686695,-21.327093744300697 L 89.5017473127204,-18.500849201649938 L 87.38387973332892,-26.03508021192315 L 85.16377782913094,-24.017371725799244 A 45.78474589746556 45.78474589746556 0 0 0 77.47548494662246,-30.77549508364752"/><text text-anchor="middle" pointer-events="none" font-size="8px" fill="#000000" x="48.97577213958563" y="-35.44995607520205" font-family="sans-serif">CONNECTION</text></g><g class="relationship" transform="translate(38.771513319957066 63.22570421537519) rotate(349.06073204226936)"><path class="outline" fill="#A5ABB6" stroke="none" d="M 10.396609043987748,-22.74116356711926 L 11.29757791189017,-22.307279828001697 A 44.378817246964424 44.378817246964424 0 0 1 21.899014536636923,-36.31084116024576 L 21.236930733330766,-37.06027096843306 A 45.378817246964424 45.378817246964424 0 0 0 10.396609043987748,-22.74116356711926 Z M 77.21713775955179,-40.28884644945207 L 76.6456017723385,-39.4682694479951 A 44.378817246964424 44.378817246964424 0 0 1 88.78666081400637,-26.77634785033394 L 86.2513194623279,-25.172588444915174 L 92.95132298526323,-21.127844597320625 L 92.16711594957766,-28.914693724225632 L 89.6317745978992,-27.310934318806865 A 45.378817246964424 45.378817246964424 0 0 0 77.21713775955179,-40.28884644945207"/><text text-anchor="middle" pointer-events="none" font-size="8px" fill="#000000" x="48.697485338239694" y="-44.85639685580159" font-family="sans-serif">CONNECTION</text></g><g class="relationship" transform="translate(38.771513319957066 63.22570421537519) rotate(349.06073204226936)"><path class="outline" fill="#A5ABB6" stroke="none" d="M 5.987513214418485,-24.277555179777966 L 6.953439040707552,-24.018736134675446 A 45.89179665619858 45.89179665619858 0 0 1 21.482093340337524,-47.041662971798246 L 20.8327525108938,-47.80216049790687 A 46.89179665619858 46.89179665619858 0 0 0 5.987513214418485,-24.277555179777966 Z M 77.05049629242822,-51.31758837602956 L 76.50095484841776,-50.482121918704735 A 45.89179665619858 45.89179665619858 0 0 1 93.7845694220147,-29.448491153261184 L 91.00609514949755,-28.3170846317313 L 96.88759701767061,-23.15395227097617 L 97.48920178537088,-30.95703318196769 L 94.71072751285374,-29.82562666043781 A 46.89179665619858 46.89179665619858 0 0 0 77.05049629242822,-51.31758837602956"/><text text-anchor="middle" pointer-events="none" font-size="8px" fill="#000000" x="48.38617765614106" y="-55.44242413120435" font-family="sans-serif">CONNECTION</text></g></g><g class="layer nodes"><g class="node" transform="translate(69.96444597846052,164.85952439878997)"><circle class="outline" cx="0" cy="0" r="25" fill="#ECB5C9" stroke="#da7298" stroke-width="2px"/><text text-anchor="middle" pointer-events="none" font-family="sans-serif" dy="1.5625" font-size="25" fill="#2A2C34"/><text text-anchor="middle" pointer-events="none" x="0" y="5" font-size="10px" fill="#2A2C34" font-family="sans-serif"> MSN</text></g><g class="node" transform="translate(143.1556179851031,43.05029107544363)"><circle class="outline" cx="0" cy="0" r="25" fill="#ECB5C9" stroke="#da7298" stroke-width="2px"/><text text-anchor="middle" pointer-events="none" font-family="sans-serif" dy="1.5625" font-size="25" fill="#2A2C34"/><text text-anchor="middle" pointer-events="none" x="0" y="5" font-size="10px" fill="#2A2C34" font-family="sans-serif"> GRR</text></g><g class="node" transform="translate(38.771513319957066,63.22570421537519)"><circle class="outline" cx="0" cy="0" r="25" fill="#ECB5C9" stroke="#da7298" stroke-width="2px"/><text text-anchor="middle" pointer-events="none" font-family="sans-serif" dy="1.5625" font-size="25" fill="#2A2C34"/><text text-anchor="middle" pointer-events="none" x="0" y="5" font-size="10px" fill="#2A2C34" font-family="sans-serif"> ORD</text></g></g></svg>