<svg xmlns="http://www.w3.org/2000/svg" width="257.598388671875" height="258.3634948730469" viewBox="-18.08763313293457 -22.656396865844727 257.598388671875 258.3634948730469"><title>Neo4j Graph Visualization</title><desc>Created using Neo4j (http://www.neo4j.com/)</desc><g class="layer relationships"><g class="relationship" transform="translate(112.52732490070117 117.60034009251767) rotate(414.42481455233496)"><path class="outline" fill="#A5ABB6" stroke="none" d="M 25 0.5 L 28.496176354815532 0.5 L 28.496176354815532 -0.5 L 25 -0.5 Z M 74.05867635481553 0.5 L 77.55485270963106 0.5 L 77.55485270963106 3.5 L 84.55485270963106 0 L 77.55485270963106 -3.5 L 77.55485270963106 -0.5 L 74.05867635481553 -0.5 Z"/><text text-anchor="middle" pointer-events="none" font-size="8px" fill="#000000" x="51.27742635481553" y="3" font-family="sans-serif">ACTED_IN</text></g><g class="relationship" transform="translate(112.52732490070117 117.60034009251767) rotate(331.0866894512211)"><path class="outline" fill="#A5ABB6" stroke="none" d="M 25 0.5 L 29.686747060177808 0.5 L 29.686747060177808 -0.5 L 25 -0.5 Z M 75.24924706017781 0.5 L 79.93599412035562 0.5 L 79.93599412035562 3.5 L 86.93599412035562 0 L 79.93599412035562 -3.5 L 79.93599412035562 -0.5 L 75.24924706017781 -0.5 Z"/><text text-anchor="middle" pointer-events="none" font-size="8px" fill="#000000" x="52.46799706017781" y="3" font-family="sans-serif">ACTED_IN</text></g><g class="relationship" transform="translate(112.52732490070117 117.60034009251767) rotate(264.3245478909445)"><path class="outline" fill="#A5ABB6" stroke="none" d="M 25 0.5 L 29.621150185058205 0.5 L 29.621150185058205 -0.5 L 25 -0.5 Z M 75.18365018505821 0.5 L 79.80480037011641 0.5 L 79.80480037011641 3.5 L 86.80480037011641 0 L 79.80480037011641 -3.5 L 79.80480037011641 -0.5 L 75.18365018505821 -0.5 Z"/><text text-anchor="middle" pointer-events="none" font-size="8px" fill="#000000" x="52.402400185058205" y="3" transform="rotate(180 52.402400185058205 0)" font-family="sans-serif">ACTED_IN</text></g><g class="relationship" transform="translate(112.52732490070117 117.60034009251767) rotate(204.63317886973869)"><path class="outline" fill="#A5ABB6" stroke="none" d="M 25 0.5 L 29.612880770286566 0.5 L 29.612880770286566 -0.5 L 25 -0.5 Z M 75.17538077028657 0.5 L 79.78826154057313 0.5 L 79.78826154057313 3.5 L 86.78826154057313 0 L 79.78826154057313 -3.5 L 79.78826154057313 -0.5 L 75.17538077028657 -0.5 Z"/><text text-anchor="middle" pointer-events="none" font-size="8px" fill="#000000" x="52.394130770286566" y="3" transform="rotate(180 52.394130770286566 0)" font-family="sans-serif">ACTED_IN</text></g><g class="relationship" transform="translate(112.52732490070117 117.60034009251767) rotate(497.82975463784436)"><path class="outline" fill="#A5ABB6" stroke="none" d="M 25 0.5 L 29.669155797940668 0.5 L 29.669155797940668 -0.5 L 25 -0.5 Z M 75.23165579794068 0.5 L 79.90081159588134 0.5 L 79.90081159588134 3.5 L 86.90081159588134 0 L 79.90081159588134 -3.5 L 79.90081159588134 -0.5 L 75.23165579794068 -0.5 Z"/><text text-anchor="middle" pointer-events="none" font-size="8px" fill="#000000" x="52.45040579794067" y="3" transform="rotate(180 52.45040579794067 0)" font-family="sans-serif">ACTED_IN</text></g></g><g class="layer nodes"><g class="node" transform="translate(112.52732490070117,117.60034009251767)"><circle class="outline" cx="0" cy="0" r="25" fill="#57C7E3" stroke="#23b3d7" stroke-width="2px"/><text text-anchor="middle" pointer-events="none" font-family="sans-serif" dy="1.5625" font-size="25" fill="#2A2C34"/><text text-anchor="middle" pointer-events="none" font-family="sans-serif" dy="1.5625" font-size="25" fill="#2A2C34"/><text text-anchor="middle" pointer-events="none" x="0" y="0" font-size="10px" fill="#2A2C34" font-family="sans-serif"> Hugo</text><text text-anchor="middle" pointer-events="none" x="0" y="10" font-size="10px" fill="#2A2C34" font-family="sans-serif"> Weaving</text></g><g class="node" transform="translate(176.26313539058373,206.7070862648852)"><circle class="outline" cx="0" cy="0" r="25" fill="#F79767" stroke="#f36924" stroke-width="2px"/><text text-anchor="middle" pointer-events="none" font-family="sans-serif" dy="1.5625" font-size="25" fill="#FFFFFF"/><text text-anchor="middle" pointer-events="none" font-family="sans-serif" dy="1.5625" font-size="25" fill="#FFFFFF"/><text text-anchor="middle" pointer-events="none" x="0" y="0" font-size="10px" fill="#FFFFFF" font-family="sans-serif"> Cloud</text><text text-anchor="middle" pointer-events="none" x="0" y="10" font-size="10px" fill="#FFFFFF" font-family="sans-serif"> Atlas</text></g><g class="node" transform="translate(210.51074704333752,63.48088180873391)"><circle class="outline" cx="0" cy="0" r="25" fill="#F79767" stroke="#f36924" stroke-width="2px"/><text text-anchor="middle" pointer-events="none" font-family="sans-serif" dy="1.5625" font-size="25" fill="#FFFFFF"/><text text-anchor="middle" pointer-events="none" font-family="sans-serif" dy="1.5625" font-size="25" fill="#FFFFFF"/><text text-anchor="middle" pointer-events="none" x="0" y="0" font-size="10px" fill="#FFFFFF" font-family="sans-serif"> V for</text><text text-anchor="middle" pointer-events="none" x="0" y="10" font-size="10px" fill="#FFFFFF" font-family="sans-serif"> Vendetta</text></g><g class="node" transform="translate(101.47056609710037,6.343603350149663)"><circle class="outline" cx="0" cy="0" r="25" fill="#F79767" stroke="#f36924" stroke-width="2px"/><text text-anchor="middle" pointer-events="none" font-family="sans-serif" dy="1.5625" font-size="25" fill="#FFFFFF"/><text text-anchor="middle" pointer-events="none" font-family="sans-serif" dy="1.5625" font-size="25" fill="#FFFFFF"/><text text-anchor="middle" pointer-events="none" font-family="sans-serif" dy="1.5625" font-size="25" fill="#FFFFFF"/><text text-anchor="middle" pointer-events="none" x="0" y="-5" font-size="10px" fill="#FFFFFF" font-family="sans-serif"> The</text><text text-anchor="middle" pointer-events="none" x="0" y="5" font-size="10px" fill="#FFFFFF" font-family="sans-serif"> Matrix</text><text text-anchor="middle" pointer-events="none" x="0" y="15" font-size="10px" fill="#FFFFFF" font-family="sans-serif"> Revol…</text></g><g class="node" transform="translate(10.91236567011465,71.00618296064307)"><circle class="outline" cx="0" cy="0" r="25" fill="#F79767" stroke="#f36924" stroke-width="2px"/><text text-anchor="middle" pointer-events="none" font-family="sans-serif" dy="1.5625" font-size="25" fill="#FFFFFF"/><text text-anchor="middle" pointer-events="none" font-family="sans-serif" dy="1.5625" font-size="25" fill="#FFFFFF"/><text text-anchor="middle" pointer-events="none" font-family="sans-serif" dy="1.5625" font-size="25" fill="#FFFFFF"/><text text-anchor="middle" pointer-events="none" x="0" y="-5" font-size="10px" fill="#FFFFFF" font-family="sans-serif"> The</text><text text-anchor="middle" pointer-events="none" x="0" y="5" font-size="10px" fill="#FFFFFF" font-family="sans-serif"> Matrix</text><text text-anchor="middle" pointer-events="none" x="0" y="15" font-size="10px" fill="#FFFFFF" font-family="sans-serif"> Reloa…</text></g><g class="node" transform="translate(29.59166554472105,192.72335948741258)"><circle class="outline" cx="0" cy="0" r="25" fill="#F79767" stroke="#f36924" stroke-width="2px"/><text text-anchor="middle" pointer-events="none" font-family="sans-serif" dy="1.5625" font-size="25" fill="#FFFFFF"/><text text-anchor="middle" pointer-events="none" font-family="sans-serif" dy="1.5625" font-size="25" fill="#FFFFFF"/><text text-anchor="middle" pointer-events="none" x="0" y="0" font-size="10px" fill="#FFFFFF" font-family="sans-serif"> The</text><text text-anchor="middle" pointer-events="none" x="0" y="10" font-size="10px" fill="#FFFFFF" font-family="sans-serif"> Matrix</text></g></g></svg>