<svg xmlns="http://www.w3.org/2000/svg" width="357.28826904296875" height="368.00701904296875" viewBox="-93.44957733154297 -76.70943450927734 357.28826904296875 368.00701904296875"><title>Neo4j Graph Visualization</title><desc>Created using Neo4j (http://www.neo4j.com/)</desc><g class="layer relationships"><g class="relationship" transform="translate(134.1058906418744 262.29758978241864) rotate(333.2305350651004)"><path class="outline" fill="#A5ABB6" stroke="none" d="M 21.40063509461097,12.933012701892217 L 21.90063509461097,12.06698729810778 A 58.15255207458965 58.15255207458965 0 0 0 24.499377958262386,13.48048609511443 L 24.044066329983682,14.37081823603387 A 59.15255207458965 59.15255207458965 0 0 1 21.40063509461097,12.933012701892217 Z M 74.56245941260732,15.952485812088398 L 74.1637353093605,15.035414882721419 A 58.15255207458965 58.15255207458965 0 0 0 76.84581146730045,13.78725191117942 L 75.51127500694629,11.100429915589578 L 83.33748553373577,11.121137169618017 L 78.62519341443932,17.369681238632545 L 77.29065695408516,14.682859243042701 A 59.15255207458965 59.15255207458965 0 0 1 74.56245941260732,15.952485812088398"/><text text-anchor="middle" pointer-events="none" font-size="8px" fill="#000000" x="49.14147259442881" y="23.329226378772844" font-family="sans-serif">PRODUCED</text></g><g class="relationship" transform="translate(134.1058906418744 262.29758978241864) rotate(333.2305350651004)"><path class="outline" fill="#A5ABB6" stroke="none" d="M 25 0.5 L 25.918521915158898 0.5 L 25.918521915158898 -0.5 L 25 -0.5 Z M 72.80914691515889 0.5 L 73.7276688303178 0.5 L 73.7276688303178 3.5 L 80.7276688303178 0 L 73.7276688303178 -3.5 L 73.7276688303178 -0.5 L 72.80914691515889 -0.5 Z"/><text text-anchor="middle" pointer-events="none" font-size="8px" fill="#000000" x="49.3638344151589" y="3" font-family="sans-serif">DIRECTED</text></g><g class="relationship" transform="translate(134.1058906418744 262.29758978241864) rotate(333.2305350651004)"><path class="outline" fill="#A5ABB6" stroke="none" d="M 21.40063509461097,-12.933012701892217 L 21.90063509461097,-12.06698729810778 A 58.15255207458965 58.15255207458965 0 0 1 31.78900797922032,-16.601152796898774 L 31.459049921178877,-17.545148390073614 A 59.15255207458965 59.15255207458965 0 0 0 21.40063509461097,-12.933012701892217 Z M 66.96342452931952,-18.65674586376889 L 66.69316546463445,-17.693958224693922 A 58.15255207458965 58.15255207458965 0 0 1 76.84581146730045,-13.78725191117942 L 75.51127500694629,-11.100429915589578 L 83.33748553373577,-11.121137169618017 L 78.62519341443932,-17.369681238632545 L 77.29065695408516,-14.682859243042701 A 59.15255207458965 59.15255207458965 0 0 0 66.96342452931952,-18.65674586376889"/><text text-anchor="middle" pointer-events="none" font-size="8px" fill="#000000" x="49.141472594428805" y="-17.329226378772844" font-family="sans-serif">WROTE</text></g><g class="relationship" transform="translate(234.83866448728097 -1.150657840134301) rotate(522.1779695500347)"><path class="outline" fill="#A5ABB6" stroke="none" d="M 24.018736134675446,6.953439040707552 L 24.277555179777966,5.987513214418485 A 101.6395290951463 101.6395290951463 0 0 0 25.85596882453736,6.396905944144137 L 25.6126793047958,7.366859659320241 A 102.6395290951463 102.6395290951463 0 0 1 24.018736134675446,6.953439040707552 Z M 72.31400584576811,8.124133324072488 L 72.10229204512537,7.146801616504675 A 101.6395290951463 101.6395290951463 0 0 0 73.69314919039279,6.788799403569833 L 73.01105192908298,3.867371101161289 L 80.62349810623103,5.684143844248378 L 74.60261220547252,10.684037140114556 L 73.92051494416272,7.762608837706013 A 102.6395290951463 102.6395290951463 0 0 1 72.31400584576811,8.124133324072488"/><text text-anchor="middle" pointer-events="none" font-size="8px" fill="#000000" x="48.9278007857409" y="12.937370838403496" transform="rotate(180 48.9278007857409 9.937370838403496)" font-family="sans-serif">DIRECTED</text></g><g class="relationship" transform="translate(234.83866448728097 -1.150657840134301) rotate(522.1779695500347)"><path class="outline" fill="#A5ABB6" stroke="none" d="M 24.018736134675446,-6.953439040707552 L 24.277555179777966,-5.987513214418485 A 101.6395290951463 101.6395290951463 0 0 1 31.255115587345212,-7.596014386766186 L 31.064946608508105,-8.577765760326756 A 102.6395290951463 102.6395290951463 0 0 0 24.018736134675446,-6.953439040707552 Z M 66.82534499829282,-9.157629544664331 L 66.66710631484774,-8.170228653910442 A 101.6395290951463 101.6395290951463 0 0 1 73.69314919039279,-6.788799403569833 L 73.01105192908298,-3.867371101161289 L 80.62349810623103,-5.684143844248378 L 74.60261220547252,-10.684037140114556 L 73.92051494416272,-7.762608837706013 A 102.6395290951463 102.6395290951463 0 0 0 66.82534499829282,-9.157629544664331"/><text text-anchor="middle" pointer-events="none" font-size="8px" fill="#000000" x="48.92780078574087" y="-6.9373708384034956" transform="rotate(180 48.92780078574087 -9.937370838403496)" font-family="sans-serif">WROTE</text></g><g class="relationship" transform="translate(64.44588863990073 -47.70943506421905) rotate(408.1562407492381)"><path class="outline" fill="#A5ABB6" stroke="none" d="M 24.018736134675446,6.953439040707552 L 24.277555179777966,5.987513214418485 A 102.94904813368788 102.94904813368788 0 0 0 26.175990682750363,6.476871825803045 L 25.93561217243071,7.447551057978387 A 103.94904813368788 103.94904813368788 0 0 1 24.018736134675446,6.953439040707552 Z M 72.6444837701097,8.20053746017119 L 72.43551837169431,7.2226144252317965 A 102.94904813368788 102.94904813368788 0 0 0 74.34874104191319,6.79470295817008 L 73.66609233496622,3.8734034625853413 L 81.27888131610206,5.688739224557971 L 75.25893931784246,10.689768952283064 L 74.5762906108955,7.768469456698326 A 103.94904813368788 103.94904813368788 0 0 1 72.6444837701097,8.20053746017119"/><text text-anchor="middle" pointer-events="none" font-size="8px" fill="#000000" x="49.255260270239845" y="12.981977331802057" font-family="sans-serif">DIRECTED</text></g><g class="relationship" transform="translate(64.44588863990073 -47.70943506421905) rotate(408.1562407492381)"><path class="outline" fill="#A5ABB6" stroke="none" d="M 24.018736134675446,-6.953439040707552 L 24.277555179777966,-5.987513214418485 A 102.94904813368788 102.94904813368788 0 0 1 31.578655953323658,-7.6617154883278005 L 31.390756464117025,-8.643903750299955 A 103.94904813368788 103.94904813368788 0 0 0 24.018736134675446,-6.953439040707552 Z M 67.15361171786509,-9.220431137679626 L 66.99746904511028,-8.232696625907877 A 102.94904813368788 102.94904813368788 0 0 1 74.34874104191319,-6.79470295817008 L 73.66609233496622,-3.8734034625853413 L 81.27888131610206,-5.688739224557971 L 75.25893931784246,-10.689768952283064 L 74.5762906108955,-7.768469456698326 A 103.94904813368788 103.94904813368788 0 0 0 67.15361171786509,-9.220431137679626"/><text text-anchor="middle" pointer-events="none" font-size="8px" fill="#000000" x="49.25526027023985" y="-6.981977331802057" font-family="sans-serif">WROTE</text></g><g class="relationship" transform="translate(-64.44957872288764 88.37384134951627) rotate(433.3026750401851)"><path class="outline" fill="#A5ABB6" stroke="none" d="M 21.40063509461097,12.933012701892217 L 21.90063509461097,12.06698729810778 A 57.59390407428643 57.59390407428643 0 0 0 31.52642128412353,16.498725328263887 L 31.193553315615908,17.441698771973527 A 58.59390407428643 58.59390407428643 0 0 1 21.40063509461097,12.933012701892217 Z M 66.68994347131438,18.55843364436044 L 66.41700797414586,17.59640130894475 A 57.59390407428643 57.59390407428643 0 0 0 76.30233232418402,13.778492951128307 L 74.96861069492597,11.091266385382642 L 82.79481458246691,11.114346910483786 L 78.08062782986143,17.36146170545586 L 76.74690620060338,14.674235139710195 A 58.59390407428643 58.59390407428643 0 0 1 66.68994347131438,18.55843364436044"/><text text-anchor="middle" pointer-events="none" font-size="8px" fill="#000000" x="48.87082654114475" y="23.254379029211684" font-family="sans-serif">WROTE</text></g><g class="relationship" transform="translate(-64.44957872288764 88.37384134951627) rotate(433.3026750401851)"><path class="outline" fill="#A5ABB6" stroke="none" d="M 25 0.5 L 25.64887214850704 0.5 L 25.64887214850704 -0.5 L 25 -0.5 Z M 72.53949714850704 0.5 L 73.18836929701408 0.5 L 73.18836929701408 3.5 L 80.18836929701408 0 L 73.18836929701408 -3.5 L 73.18836929701408 -0.5 L 72.53949714850704 -0.5 Z"/><text text-anchor="middle" pointer-events="none" font-size="8px" fill="#000000" x="49.09418464850704" y="3" font-family="sans-serif">DIRECTED</text></g><g class="relationship" transform="translate(-64.44957872288764 88.37384134951627) rotate(433.3026750401851)"><path class="outline" fill="#A5ABB6" stroke="none" d="M 21.40063509461097,-12.933012701892217 L 21.90063509461097,-12.06698729810778 A 57.59390407428643 57.59390407428643 0 0 1 24.249225512031735,-13.351122250897141 L 23.790003966890282,-14.239444023948941 A 58.59390407428643 58.59390407428643 0 0 0 21.40063509461097,-12.933012701892217 Z M 74.28014173965386,-15.827889984655002 L 73.87766719933305,-14.912458805158934 A 57.59390407428643 57.59390407428643 0 0 1 76.30233232418402,-13.778492951128307 L 74.96861069492597,-11.091266385382642 L 82.79481458246691,-11.114346910483786 L 78.08062782986143,-17.36146170545586 L 76.74690620060338,-14.674235139710195 A 58.59390407428643 58.59390407428643 0 0 0 74.28014173965386,-15.827889984655002"/><text text-anchor="middle" pointer-events="none" font-size="8px" fill="#000000" x="48.87082654114474" y="-17.254379029211684" font-family="sans-serif">PRODUCED</text></g></g><g class="layer nodes"><g class="node" transform="translate(134.1058906418744,262.29758978241864)"><circle class="outline" cx="0" cy="0" r="25" fill="#57C7E3" stroke="#23b3d7" stroke-width="2px"/><text text-anchor="middle" pointer-events="none" font-family="sans-serif" dy="1.5625" font-size="25" fill="#2A2C34"/><text text-anchor="middle" pointer-events="none" font-family="sans-serif" dy="1.5625" font-size="25" fill="#2A2C34"/><text text-anchor="middle" pointer-events="none" x="0" y="0" font-size="10px" fill="#2A2C34" font-family="sans-serif"> Cameron</text><text text-anchor="middle" pointer-events="none" x="0" y="10" font-size="10px" fill="#2A2C34" font-family="sans-serif"> Crowe</text></g><g class="node" transform="translate(228.50230030512043,214.67765909177206)"><circle class="outline" cx="0" cy="0" r="25" fill="#F79767" stroke="#f36924" stroke-width="2px"/><text text-anchor="middle" pointer-events="none" font-family="sans-serif" dy="1.5625" font-size="25" fill="#FFFFFF"/><text text-anchor="middle" pointer-events="none" font-family="sans-serif" dy="1.5625" font-size="25" fill="#FFFFFF"/><text text-anchor="middle" pointer-events="none" x="0" y="0" font-size="10px" fill="#FFFFFF" font-family="sans-serif"> Jerry</text><text text-anchor="middle" pointer-events="none" x="0" y="10" font-size="10px" fill="#FFFFFF" font-family="sans-serif"> Maguire</text></g><g class="node" transform="translate(234.83866448728097,-1.150657840134301)"><circle class="outline" cx="0" cy="0" r="25" fill="#57C7E3" stroke="#23b3d7" stroke-width="2px"/><text text-anchor="middle" pointer-events="none" font-family="sans-serif" dy="1.5625" font-size="25" fill="#2A2C34"/><text text-anchor="middle" pointer-events="none" font-family="sans-serif" dy="1.5625" font-size="25" fill="#2A2C34"/><text text-anchor="middle" pointer-events="none" x="0" y="0" font-size="10px" fill="#2A2C34" font-family="sans-serif"> Lana</text><text text-anchor="middle" pointer-events="none" x="0" y="10" font-size="10px" fill="#2A2C34" font-family="sans-serif"> Wacho…</text></g><g class="node" transform="translate(134.90719308652757,30.976217712417583)"><circle class="outline" cx="0" cy="0" r="25" fill="#F79767" stroke="#f36924" stroke-width="2px"/><text text-anchor="middle" pointer-events="none" font-family="sans-serif" dy="1.5625" font-size="25" fill="#FFFFFF"/><text text-anchor="middle" pointer-events="none" font-family="sans-serif" dy="1.5625" font-size="25" fill="#FFFFFF"/><text text-anchor="middle" pointer-events="none" x="0" y="0" font-size="10px" fill="#FFFFFF" font-family="sans-serif"> Speed</text><text text-anchor="middle" pointer-events="none" x="0" y="10" font-size="10px" fill="#FFFFFF" font-family="sans-serif"> Racer</text></g><g class="node" transform="translate(64.44588863990073,-47.70943506421905)"><circle class="outline" cx="0" cy="0" r="25" fill="#57C7E3" stroke="#23b3d7" stroke-width="2px"/><text text-anchor="middle" pointer-events="none" font-family="sans-serif" dy="1.5625" font-size="25" fill="#2A2C34"/><text text-anchor="middle" pointer-events="none" font-family="sans-serif" dy="1.5625" font-size="25" fill="#2A2C34"/><text text-anchor="middle" pointer-events="none" x="0" y="0" font-size="10px" fill="#2A2C34" font-family="sans-serif"> Lilly</text><text text-anchor="middle" pointer-events="none" x="0" y="10" font-size="10px" fill="#2A2C34" font-family="sans-serif"> Wacho…</text></g><g class="node" transform="translate(-64.44957872288764,88.37384134951627)"><circle class="outline" cx="0" cy="0" r="25" fill="#57C7E3" stroke="#23b3d7" stroke-width="2px"/><text text-anchor="middle" pointer-events="none" font-family="sans-serif" dy="1.5625" font-size="25" fill="#2A2C34"/><text text-anchor="middle" pointer-events="none" font-family="sans-serif" dy="1.5625" font-size="25" fill="#2A2C34"/><text text-anchor="middle" pointer-events="none" x="0" y="0" font-size="10px" fill="#2A2C34" font-family="sans-serif"> Nancy</text><text text-anchor="middle" pointer-events="none" x="0" y="10" font-size="10px" fill="#2A2C34" font-family="sans-serif"> Meyers</text></g><g class="node" transform="translate(-34.22729819797585,189.12703879375897)"><circle class="outline" cx="0" cy="0" r="25" fill="#F79767" stroke="#f36924" stroke-width="2px"/><text text-anchor="middle" pointer-events="none" font-family="sans-serif" dy="1.5625" font-size="25" fill="#FFFFFF"/><text text-anchor="middle" pointer-events="none" x="0" y="5" font-size="10px" fill="#FFFFFF" font-family="sans-serif"> Somethi…</text></g></g></svg>